<svg width="633" height="530" viewBox="0 0 633 530" fill="none" xmlns="http://www.w3.org/2000/svg">
<path d="M0 520.72C0 520.72 23.4459 388.08 72.7892 364.201C211.602 297.079 411.081 317.402 521.858 359.661C600.577 389.693 632.893 529.053 632.893 529.053C632.893 529.053 465.327 520.72 298.735 520.72C132.144 520.72 -0.000100376 529.342 0 520.72Z" fill="#38241B"/>
<path d="M196.176 349.24C196.176 349.24 205.257 380.996 223.856 426.345C242.456 471.695 298.61 529.08 298.61 529.08C298.61 529.08 256.515 394.617 235.645 377.823C214.775 361.028 196.176 349.24 196.176 349.24Z" fill="#38241B"/>
<path d="M393.961 350.58C393.961 350.58 395.766 405.914 380.339 440.405C364.913 474.868 300.061 525.689 300.061 525.689C300.061 525.689 347.681 409.114 359.497 390.514C371.286 371.915 393.961 350.58 393.961 350.58Z" fill="#38241B"/>
<path d="M103.396 243.332C103.396 243.332 101.919 240.159 130.611 205.257C159.304 170.356 321.147 133.184 392.508 185.892C463.843 238.627 486.326 234.552 482.032 251.236C477.738 267.921 349.812 367.729 342.071 399.13C334.303 430.53 301.07 528.971 298.636 529.025C296.201 529.08 262.968 421.996 238.926 389.42C214.829 356.898 103.396 243.332 103.396 243.332Z" fill="#38241B"/>
<path d="M103.396 243.332C103.396 243.332 109.139 231.762 115.513 234.415C160.288 253.042 257.388 371.258 272.377 420.437C291.77 484.031 298.581 529.053 298.581 529.053C298.581 529.053 268.329 446.86 223.362 389.447C187.476 343.687 103.396 243.332 103.396 243.332Z" fill="#38241B"/>
<path d="M486.054 250.854C486.054 250.854 477.903 234.935 472.87 237.67C448.554 250.854 402.684 291.116 372.542 340.76C350.879 376.4 326.782 411.001 320.518 431.488C301.126 495.082 298.609 529.08 298.609 529.08C298.609 529.08 336.027 440.487 380.994 383.102C416.853 337.314 486.054 250.854 486.054 250.854Z" fill="#38241B"/>
<path d="M184.386 194.536C182.827 215.488 191.252 324.787 221.12 348.775C261.027 380.832 273.391 408.266 293.166 408.293C323.527 408.348 335.89 378.698 372.652 348.31C404.681 321.833 405.064 206.844 405.064 206.844C405.064 206.844 321.886 179.41 293.166 180.559C265.267 181.653 184.386 194.536 184.386 194.536Z" fill="#EEE1CA"/>
<path d="M281.651 224.404C282.69 217.539 273.39 198.994 252.794 195.985C232.198 192.977 194.096 218.989 194.096 221.396C194.096 223.83 191.06 229.875 201.344 224.432C211.629 218.989 238.954 204.93 251.043 209.087C263.133 213.245 266.306 229.957 269.178 229.957C272.077 229.929 280.885 229.492 281.651 224.404Z" fill="#38241B"/>
<path d="M315.676 224.404C314.637 217.539 323.936 198.994 344.532 195.985C365.129 192.977 403.23 218.989 403.23 221.396C403.23 223.83 406.239 229.875 395.982 224.432C385.698 218.989 359.686 207.036 347.596 211.193C335.506 215.351 332.798 230.477 329.899 230.477C327 230.449 316.442 229.492 315.676 224.404Z" fill="#38241B"/>
<path d="M103.396 243.332C100.716 242.593 166.005 66.2538 232.991 19.4542C271.366 -7.35096 342.81 -6.66715 377.711 22.8185C423.417 61.4125 488.378 245.411 486.053 250.854C483.728 256.27 411.491 194.919 292.865 191.882C171.886 188.764 111.93 245.657 103.396 243.332Z" fill="#38241B"/>
<path d="M302.465 16.0351C260.534 16.0351 224.211 152.796 215.513 197.845C236.957 193.633 262.531 191.089 292.865 191.882C324.785 192.703 352.246 196.97 375.468 202.632C368.165 154.683 358.729 16.0351 302.465 16.0351Z" fill="#38241B"/>
<path d="M207.034 279.792C207.034 279.792 217.948 333.512 252.794 331.132C282.061 329.136 283.319 312.396 285.89 316.007C288.434 319.645 306.952 319.863 298.609 324.267C295.655 325.826 292.865 336.329 284.824 340.186C270.136 347.298 252.028 349.65 237.833 344.617C207.581 333.95 200.606 280.996 207.034 279.792Z" fill="#38241B"/>
<path d="M392.289 279.792C392.289 279.792 381.375 333.512 346.528 331.132C317.261 329.136 316.003 312.396 313.432 316.007C310.888 319.645 292.371 319.863 300.713 324.267C303.667 325.826 306.485 336.329 314.499 340.186C329.187 347.298 347.294 349.65 361.49 344.617C391.742 333.95 398.716 280.996 392.289 279.792Z" fill="#38241B"/>
<path d="M216.743 238.6C216.743 238.6 220.134 240.214 229.078 238.245C238.023 236.275 248.252 237.561 258.865 243.496C269.478 249.432 266.414 252.249 266.414 252.249C266.414 252.249 254.379 254.984 243.192 253.999C232.005 252.987 213.324 238.026 216.743 238.6Z" fill="#38241B"/>
<path d="M384.331 239.612C384.331 239.612 380.939 241.226 371.995 239.257C363.051 237.287 352.848 238.573 342.208 244.508C331.596 250.444 334.632 253.261 334.632 253.261C334.632 253.261 346.667 255.996 357.881 255.012C369.068 254.027 387.75 239.038 384.331 239.612Z" fill="#38241B"/>
<path d="M325.304 298.419C325.304 298.419 327.246 309.196 319.779 310.345C312.339 311.466 310.179 314.311 305.802 317.183C304.161 318.277 302.411 318.66 300.906 318.742H296.256C294.725 318.66 293.001 318.277 291.36 317.183C286.984 314.311 284.823 311.494 277.383 310.345C269.943 309.196 271.858 298.419 271.858 298.419C266.552 303.261 268.713 310.591 279.106 314.174C289.528 317.757 286.355 322.845 293.74 324.076C295.873 324.431 297.405 324.431 298.554 324.295C299.73 324.431 301.262 324.431 303.368 324.076C310.753 322.872 307.58 317.785 318.001 314.174C328.477 310.619 330.611 303.261 325.304 298.419Z" fill="#38241B"/>
<path d="M310.808 356.953H298.8H293.849H281.842C281.842 356.953 287.969 361.165 288.762 366.608C289.555 372.051 282.744 375.224 284.577 384.743C286.41 394.261 289.117 406.461 296.338 406.461C302.11 406.461 306.267 394.261 308.1 384.743C309.905 375.224 303.122 372.051 303.888 366.608C304.681 361.165 310.808 356.953 310.808 356.953Z" fill="#38241B"/>
<path d="M257.007 335.099C258.812 336.302 282.144 344.18 298.61 344.781C315.076 345.383 346.558 339.94 346.558 339.94C346.558 339.94 317.127 351.428 296.148 351.428C275.141 351.428 257.007 335.099 257.007 335.099Z" fill="#38241B"/>
<path d="M150.824 368.742C152.629 371.477 175.304 379.628 194.369 426.81C213.406 473.993 193.466 510.262 193.466 510.262C193.466 510.262 181.677 442.21 174.402 423.173C167.153 404.108 150.824 368.742 150.824 368.742Z" fill="#38241B"/>
<path d="M480.145 374.185C471.967 391.417 460.178 405.038 453.833 450.388C447.487 495.766 449.292 512.095 449.292 512.095C449.292 512.095 464.719 468.55 475.605 443.14C486.491 417.73 480.145 374.185 480.145 374.185Z" fill="#38241B"/>
<path d="M458.374 515.24C458.374 515.24 479.681 453.561 486.957 436.302C494.205 419.07 511 400.033 511 400.033C511 400.033 510.535 426.318 506.022 445.383C501.481 464.447 491.498 481.679 491.498 481.679C491.498 481.679 510.097 472.161 513.735 456.734C517.373 441.307 520.983 425.881 520.983 425.881C520.983 425.881 528.669 454.218 520.983 471.231C508.264 499.376 458.374 515.24 458.374 515.24Z" fill="#38241B"/>
<path d="M292.866 191.882C378.151 194.07 439.447 226.373 468.03 242.374C447.953 226.592 417.565 207.938 377.166 197.736C298.227 177.769 239.721 182.309 184.388 200.909C152.741 211.549 131.434 224.814 121.696 234.661C148.693 219.344 204.464 189.612 292.866 191.882Z" fill="#563A30"/>
</svg>
