<svg width="18" height="18" viewBox="0 0 18 18" fill="none" xmlns="http://www.w3.org/2000/svg">
<path d="M16.5902 15.8005L16.5899 15.8002L14.4894 13.6039C15.5988 12.2273 16.267 10.4511 16.267 8.51687C16.267 4.17427 12.8923 0.614233 8.70886 0.614233C4.52548 0.614233 1.15 4.17422 1.15 8.51687C1.15 12.8595 4.52544 16.4203 8.70886 16.4203C10.3801 16.4203 11.9252 15.8501 13.1759 14.889L15.2995 17.1078L15.3 17.1083C15.4754 17.2909 15.709 17.3857 15.9447 17.3857C16.1801 17.3857 16.4157 17.2915 16.5917 17.105C16.9374 16.7419 16.9353 16.1621 16.5902 15.8005ZM2.96031 8.51687C2.96031 5.17117 5.55457 2.47761 8.70886 2.47761C11.8624 2.47761 14.4567 5.17114 14.4567 8.51687C14.4567 11.8627 11.8623 14.5569 8.70886 14.5569C5.55463 14.5569 2.96031 11.8626 2.96031 8.51687Z" fill="white" stroke="white" stroke-width="0.7"/>
</svg>
