<svg width="60" height="27" viewBox="0 0 60 27" fill="none" xmlns="http://www.w3.org/2000/svg">
<path d="M56.3043 0.419434C56.3043 0.419434 58.2463 11.1962 50.7792 12.345C43.3394 13.4664 41.1785 16.3111 36.8022 19.183C35.1611 20.2771 33.4105 20.6601 31.9061 20.7421H27.2563C25.7246 20.6601 24.0014 20.2771 22.3602 19.183C17.9839 16.3111 15.8231 13.4938 8.38326 12.345C0.943467 11.1962 2.85813 0.419434 2.85813 0.419434C-2.4482 5.26077 -0.287389 12.5912 10.1064 16.1743C20.5276 19.7574 17.3548 24.845 24.7399 26.0758C26.8734 26.4314 28.4051 26.4314 29.5539 26.2946C30.73 26.4314 32.2617 26.4314 34.3679 26.0758C41.7529 24.8723 38.5801 19.7848 49.0013 16.1743C59.4772 12.6185 61.6106 5.26077 56.3043 0.419434Z" fill="#38241B"/>
</svg>
