<svg width="280" height="36" viewBox="0 0 280 36" fill="none" xmlns="http://www.w3.org/2000/svg">
<path d="M14.568 20.316V22.052H23.724V20.316H14.568ZM13.504 10.796V35.268H15.436V12.672H23.528V10.796H13.504ZM22.52 10.796V16.172C22.52 16.48 22.408 16.592 21.96 16.62C21.512 16.648 20.056 16.648 18.32 16.592C18.6 17.124 18.88 17.88 18.964 18.44C21.12 18.44 22.52 18.412 23.388 18.104C24.256 17.796 24.48 17.236 24.48 16.2V10.796H22.52ZM17.312 21.464L15.66 21.884C17.312 27.708 20.42 32.804 24.732 35.24C25.068 34.708 25.712 33.952 26.188 33.532C21.988 31.488 18.824 26.7 17.312 21.464ZM23.08 20.316V20.764C22.212 25.888 19.58 31.124 15.38 33.868C15.856 34.232 16.472 34.82 16.78 35.296C21.26 32.272 24.032 26.756 25.124 20.68L23.836 20.204L23.472 20.316H23.08ZM1.156 12.364V14.184H11.544V12.364H1.156ZM0.82 27.68V29.5H11.908V27.68H0.82ZM0.148 16.984V18.804H12.608V16.984H0.148ZM0.54 22.808V24.628H12.272V22.808H0.54ZM5.468 9.536V17.628H7.428V9.536H5.468ZM5.468 23.564V35.184H7.428V23.564H5.468ZM9.248 18.692C8.94 19.784 8.324 21.436 7.848 22.472L9.416 22.948C9.948 21.968 10.48 20.512 11.04 19.168L9.248 18.692ZM2.108 19.14C2.668 20.372 3.2 21.968 3.34 22.976L5.02 22.5C4.88 21.52 4.32 19.924 3.704 18.748L2.108 19.14ZM37.192 32.188V34.12H50.716V32.188H37.192ZM36.24 12.308V14.184H46.516V12.308H36.24ZM37.5 9.396C35.876 12.448 32.656 16.06 28.036 18.58C28.512 18.944 29.212 19.672 29.52 20.204C34.392 17.32 37.752 13.512 39.852 9.872L37.5 9.396ZM45.816 12.308V12.672C42.904 20.036 35.148 25.524 27.896 27.624C28.344 28.072 28.876 28.94 29.128 29.5C36.744 27.036 44.64 21.408 48 12.952L46.6 12.196L46.208 12.308H45.816ZM32.74 17.292C34.952 18.86 37.612 21.212 38.788 22.808L40.496 21.296C39.208 19.7 36.52 17.46 34.308 15.948L32.74 17.292ZM49.68 23.34V35.296H51.836V23.34H49.68ZM38.144 23.34H37.724L36.044 24.992V35.24H38.144V25.272H50.744V23.34H38.144ZM68.608 13.764H78.968V22.864H68.608V13.764ZM66.872 12.14V24.488H80.76V12.14H66.872ZM73.032 9.424C72.78 10.432 72.22 11.888 71.772 12.896L73.508 13.316C74.04 12.448 74.74 11.132 75.328 9.844L73.032 9.424ZM70.624 25.468C72.248 26.364 74.208 27.792 75.132 28.828L76.504 27.624C75.524 26.56 73.536 25.216 71.884 24.376L70.624 25.468ZM77.428 28.1C78.828 29.976 80.088 32.524 80.536 34.26L82.216 33.448C81.74 31.712 80.452 29.192 78.996 27.316L77.428 28.1ZM70.176 27.428V32.72C70.176 34.652 70.68 35.184 72.724 35.184C73.144 35.184 75.44 35.184 75.888 35.184C77.484 35.184 78.016 34.512 78.212 31.768C77.68 31.628 76.924 31.348 76.532 31.04C76.476 33.168 76.336 33.42 75.664 33.42C75.188 33.42 73.312 33.42 72.948 33.42C72.136 33.42 71.996 33.336 71.996 32.72V27.428H70.176ZM67.46 27.848C67.124 30.004 66.424 32.244 65.024 33.56L66.592 34.456C68.104 33.028 68.748 30.564 69.14 28.268L67.46 27.848ZM73.2 13.988C72.556 15.668 71.212 17.628 69.112 19.084C69.476 19.28 69.952 19.7 70.204 20.008C72.472 18.356 73.816 16.228 74.656 14.184L73.2 13.988ZM73.34 15.276L72.724 16.48H77.12V15.276H73.34ZM76.616 15.276V15.528C75.636 18.608 72.948 20.848 70.176 21.856C70.512 22.136 70.904 22.64 71.1 22.976C74.124 21.744 76.924 19.336 78.1 15.612L77.176 15.22L76.896 15.276H76.616ZM69.28 16.9C72.08 18.132 75.356 20.232 77.008 21.772L78.072 20.68C76.392 19.224 73.06 17.152 70.316 15.92L69.28 16.9ZM60.488 9.508C59.788 11.356 58.5 14.1 57.52 15.724L58.92 16.34C59.956 14.772 61.272 12.252 62.28 10.18L60.488 9.508ZM63.456 12.7C62 15.64 59.48 19.812 57.492 22.304L58.752 22.976C60.768 20.568 63.344 16.592 65.192 13.484L63.456 12.7ZM56.008 15.304C57.492 16.704 59.172 18.692 59.872 20.036L61.048 18.496C60.32 17.236 58.612 15.332 57.128 13.96L56.008 15.304ZM62.392 19.028C63.428 20.932 64.38 23.452 64.688 25.02L66.256 24.348C65.976 22.78 64.94 20.316 63.876 18.468L62.392 19.028ZM55.784 21.884L56.008 23.76C58.444 23.592 61.636 23.396 64.8 23.2V21.408C61.44 21.604 58.108 21.772 55.784 21.884ZM62.924 25.832C63.568 27.456 64.1 29.584 64.24 30.984L65.808 30.508C65.668 29.136 65.08 27.008 64.408 25.412L62.924 25.832ZM57.464 25.496C57.156 27.932 56.624 30.452 55.728 32.16C56.148 32.328 56.96 32.692 57.296 32.944C58.164 31.152 58.836 28.436 59.2 25.804L57.464 25.496ZM60.292 22.696V35.24H62.112V22.696H60.292ZM95.544 10.348C95.348 14.072 95.348 27.54 83.924 33.364C84.568 33.84 85.268 34.484 85.632 35.016C97.224 28.716 97.644 14.744 97.868 10.348H95.544ZM97.784 10.908L95.768 11.104C95.964 13.68 96.748 29.332 108.62 35.016C108.956 34.428 109.6 33.728 110.216 33.252C98.68 27.96 97.868 13.092 97.784 10.908ZM128.836 14.688V16.648H137.88V14.688H128.836ZM129.396 9.48C128.752 14.324 127.576 19.084 125.588 22.136C126.064 22.472 126.876 23.228 127.184 23.592C129.284 20.26 130.628 15.108 131.44 9.788L129.396 9.48ZM134.352 15.724C133.4 24.264 131.16 30.228 125.476 33.588C125.84 34.008 126.456 34.876 126.652 35.324C132.728 31.404 135.192 25.216 136.34 15.92L134.352 15.724ZM129.872 16.452L128.08 16.732C129.284 25.104 131.608 32.02 136.564 35.268C136.9 34.764 137.544 34.008 138.02 33.616C133.26 30.788 130.936 24.124 129.872 16.452ZM118.588 9.48V24.18H120.464V9.48H118.588ZM115.816 12.672H123.46V17.348H115.816V12.672ZM114.024 11.188V18.832H125.308V11.188H114.024ZM115.144 21.548H124.104V23.368H115.144V21.548ZM113.324 20.12V24.796H125.98V20.12H113.324ZM112.12 26.588L112.176 28.268C116.012 28.212 121.808 28.128 127.38 27.988L127.464 26.392C121.78 26.504 115.9 26.588 112.12 26.588ZM117.72 24.348C116.628 26.504 115.032 29.36 113.884 31.152L115.62 31.656C116.74 29.836 118.336 27.036 119.512 24.768L117.72 24.348ZM115.48 30.648C118.728 31.824 122.004 33.42 123.936 34.792L125.28 33.476C123.236 32.104 119.792 30.508 116.516 29.388L115.48 30.648ZM122.76 27.26C121.724 31.208 118.588 33 112.792 33.7C113.128 34.12 113.492 34.82 113.604 35.352C119.988 34.26 123.46 32.132 124.58 27.568L122.76 27.26ZM112.092 14.184V15.808H114.78V15.696H124.44V15.808H127.296V14.184H124.44V14.296H114.78V14.184H112.092ZM165.842 28.5078C165.842 29.4193 166.33 30.0378 167.307 30.3633C167.827 30.526 168.267 30.7214 168.625 30.9492C169.016 31.1771 169.211 31.4212 169.211 31.6816C169.211 32.5605 168.804 33 167.99 33H156.174C155.62 33 155.295 32.9023 155.197 32.707C155.1 32.4792 155.051 32.1374 155.051 31.6816C155.051 31.4212 155.262 31.1771 155.686 30.9492C156.109 30.7214 156.581 30.526 157.102 30.3633C158.111 30.0378 158.615 29.4193 158.615 28.5078V5.85156C157.997 6.07943 157.46 6.24219 157.004 6.33984C156.548 6.40495 156.011 6.51888 155.393 6.68164C155.002 6.7793 154.644 6.69792 154.318 6.4375C154.025 6.14453 153.83 5.80273 153.732 5.41211C153.635 5.02148 153.667 4.63086 153.83 4.24023C153.993 3.81706 154.367 3.52409 154.953 3.36133C155.995 3.06836 156.923 2.79167 157.736 2.53125C158.55 2.27083 159.283 2.02669 159.934 1.79883C160.617 1.53841 161.252 1.31055 161.838 1.11523C162.424 0.88737 163.026 0.692057 163.645 0.529297C163.775 0.496745 163.97 0.480469 164.23 0.480469C164.491 0.447917 164.735 0.480469 164.963 0.578125C165.191 0.643229 165.386 0.80599 165.549 1.06641C165.744 1.29427 165.842 1.65234 165.842 2.14062V28.5078ZM190.158 17.082C190.158 15.6823 190.109 14.1849 190.012 12.5898C189.914 10.9622 189.67 9.46484 189.279 8.09766C188.921 6.73047 188.352 5.60742 187.57 4.72852C186.789 3.81706 185.715 3.36133 184.348 3.36133C182.98 3.36133 181.906 3.81706 181.125 4.72852C180.376 5.60742 179.807 6.73047 179.416 8.09766C179.058 9.46484 178.83 10.9622 178.732 12.5898C178.635 14.1849 178.586 15.6823 178.586 17.082C178.586 18.5143 178.635 20.028 178.732 21.623C178.83 23.2181 179.058 24.6992 179.416 26.0664C179.807 27.4336 180.376 28.5729 181.125 29.4844C181.906 30.3633 182.98 30.8027 184.348 30.8027C185.715 30.8027 186.789 30.3633 187.57 29.4844C188.352 28.5729 188.921 27.4336 189.279 26.0664C189.67 24.6992 189.914 23.2181 190.012 21.623C190.109 20.028 190.158 18.5143 190.158 17.082ZM197.775 17.1309C197.775 19.377 197.531 21.4928 197.043 23.4785C196.555 25.4642 195.773 27.2057 194.699 28.7031C193.658 30.168 192.29 31.3398 190.598 32.2188C188.905 33.0977 186.838 33.5371 184.396 33.5371C181.955 33.5371 179.872 33.0977 178.146 32.2188C176.454 31.3398 175.07 30.1517 173.996 28.6543C172.954 27.1569 172.189 25.4154 171.701 23.4297C171.213 21.444 170.969 19.3281 170.969 17.082C170.969 14.8359 171.213 12.7201 171.701 10.7344C172.189 8.7487 172.954 7.00716 173.996 5.50977C175.07 4.01237 176.454 2.82422 178.146 1.94531C179.872 1.06641 181.955 0.626953 184.396 0.626953C186.838 0.626953 188.905 1.06641 190.598 1.94531C192.29 2.82422 193.658 4.01237 194.699 5.50977C195.773 7.00716 196.555 8.7487 197.043 10.7344C197.531 12.7201 197.775 14.8359 197.775 17.082V17.1309ZM224.387 23.5273C224.387 25.1224 224.029 26.5384 223.312 27.7754C222.596 29.0124 221.604 30.0703 220.334 30.9492C219.097 31.7956 217.632 32.4466 215.939 32.9023C214.247 33.3255 212.44 33.5371 210.52 33.5371C208.078 33.5371 205.913 33.293 204.025 32.8047C202.17 32.3164 200.559 31.3887 199.191 30.0215C199.061 29.8913 198.996 29.696 198.996 29.4355C198.996 29.1426 199.045 28.8659 199.143 28.6055C199.273 28.3451 199.419 28.1497 199.582 28.0195C199.777 27.8893 200.005 27.8893 200.266 28.0195C201.503 28.7682 202.886 29.3379 204.416 29.7285C205.946 30.0866 207.688 30.2331 209.641 30.168C210.552 30.1354 211.415 29.9727 212.229 29.6797C213.042 29.3867 213.758 28.9961 214.377 28.5078C215.028 27.987 215.533 27.3685 215.891 26.6523C216.281 25.9036 216.477 25.0736 216.477 24.1621C216.509 22.3392 216.037 20.9232 215.061 19.9141C214.117 18.9049 212.961 18.2376 211.594 17.9121C210.227 17.554 208.778 17.5052 207.248 17.7656C205.751 18.026 204.449 18.498 203.342 19.1816C203.244 19.2467 203.098 19.2793 202.902 19.2793C202.74 19.2793 202.561 19.2305 202.365 19.1328C202.202 19.0352 202.056 18.8887 201.926 18.6934C201.796 18.4655 201.73 18.1725 201.73 17.8145V3.45898C201.73 2.9056 201.893 2.40104 202.219 1.94531C202.544 1.45703 203.163 1.21289 204.074 1.21289C205.637 1.21289 207.15 1.22917 208.615 1.26172C210.113 1.29427 211.594 1.32682 213.059 1.35938C214.523 1.35938 216.005 1.35938 217.502 1.35938C219.032 1.35938 220.627 1.31055 222.287 1.21289C222.775 1.14779 223.003 1.35938 222.971 1.84766C222.971 2.33594 222.808 2.88932 222.482 3.50781C222.157 4.1263 221.717 4.71224 221.164 5.26562C220.643 5.78646 220.139 6.04688 219.65 6.04688C217.925 6.04688 216.444 6.01432 215.207 5.94922C213.97 5.88411 212.814 5.83529 211.74 5.80273C210.699 5.73763 209.657 5.72135 208.615 5.75391C207.606 5.78646 206.467 5.88411 205.197 6.04688V14.6895C207.053 14.0059 209.087 13.6478 211.301 13.6152C213.547 13.5501 215.63 13.8594 217.551 14.543C219.504 15.2266 221.132 16.3008 222.434 17.7656C223.736 19.2305 224.387 21.151 224.387 23.5273ZM233.713 28.0684C233.355 28.3288 233.16 28.5404 233.127 28.7031C233.094 28.8333 233.127 28.9473 233.225 29.0449C233.355 29.1426 233.501 29.224 233.664 29.2891C233.827 29.3216 233.941 29.3542 234.006 29.3867H244.748C245.432 29.3867 246.018 29.2077 246.506 28.8496C247.027 28.459 247.499 28.0358 247.922 27.5801C248.345 27.0918 248.719 26.6686 249.045 26.3105C249.403 25.9199 249.729 25.7246 250.021 25.7246C250.9 25.7246 251.34 26.1315 251.34 26.9453C251.34 28.3125 250.998 29.5983 250.314 30.8027C249.468 32.2676 248.426 33 247.189 33H227.512C227.251 33 227.007 32.9023 226.779 32.707C226.584 32.4792 226.421 32.2188 226.291 31.9258C226.193 31.6003 226.177 31.2585 226.242 30.9004C226.307 30.5423 226.519 30.2168 226.877 29.9238C228.635 28.4264 230.393 26.9453 232.15 25.4805C233.908 23.9831 235.487 22.4694 236.887 20.9395C238.286 19.4095 239.426 17.8307 240.305 16.2031C241.184 14.5755 241.623 12.8828 241.623 11.125C241.623 10.5065 241.525 9.88802 241.33 9.26953C241.135 8.65104 240.826 8.09766 240.402 7.60938C239.979 7.12109 239.458 6.73047 238.84 6.4375C238.221 6.11198 237.505 5.93294 236.691 5.90039C235.585 5.86784 234.657 5.93294 233.908 6.0957C233.192 6.22591 232.574 6.45378 232.053 6.7793C231.532 7.07227 231.06 7.46289 230.637 7.95117C230.246 8.43945 229.823 9.00911 229.367 9.66016C229.042 10.1159 228.716 10.3112 228.391 10.2461C228.098 10.181 227.87 9.92057 227.707 9.46484C227.577 8.97656 227.561 8.32552 227.658 7.51172C227.756 6.69792 228.065 5.77018 228.586 4.72852C228.716 4.4681 228.895 4.07747 229.123 3.55664C229.351 3.00326 229.611 2.4987 229.904 2.04297C230.197 1.58724 230.49 1.24544 230.783 1.01758C231.109 0.757161 231.434 0.773438 231.76 1.06641C232.053 1.32682 232.346 1.47331 232.639 1.50586C232.932 1.50586 233.208 1.52214 233.469 1.55469C233.762 1.58724 234.087 1.55469 234.445 1.45703C234.836 1.35938 235.243 1.26172 235.666 1.16406C236.089 1.03385 236.529 0.919922 236.984 0.822266C237.44 0.692057 237.912 0.626953 238.4 0.626953C239.963 0.626953 241.428 0.838542 242.795 1.26172C244.162 1.65234 245.35 2.25456 246.359 3.06836C247.368 3.84961 248.166 4.82617 248.752 5.99805C249.338 7.13737 249.631 8.42318 249.631 9.85547C249.631 11.125 249.305 12.4108 248.654 13.7129C248.036 14.9824 247.238 16.2194 246.262 17.4238C245.285 18.6283 244.178 19.7839 242.941 20.8906C241.737 21.9974 240.533 23.0228 239.328 23.9668C238.156 24.8783 237.066 25.6921 236.057 26.4082C235.048 27.0918 234.266 27.6452 233.713 28.0684ZM264.763 10.348C264.567 14.072 264.567 27.54 253.143 33.364C253.787 33.84 254.487 34.484 254.851 35.016C266.443 28.716 266.863 14.744 267.087 10.348H264.763ZM267.003 10.908L264.987 11.104C265.183 13.68 265.967 29.332 277.839 35.016C278.175 34.428 278.819 33.728 279.435 33.252C267.899 27.96 267.087 13.092 267.003 10.908Z" fill="#38241B"/>
</svg>
