<svg width="270" height="36" viewBox="0 0 270 36" fill="none" xmlns="http://www.w3.org/2000/svg">
<path d="M14.568 20.316V22.052H23.724V20.316H14.568ZM13.504 10.796V35.268H15.436V12.672H23.528V10.796H13.504ZM22.52 10.796V16.172C22.52 16.48 22.408 16.592 21.96 16.62C21.512 16.648 20.056 16.648 18.32 16.592C18.6 17.124 18.88 17.88 18.964 18.44C21.12 18.44 22.52 18.412 23.388 18.104C24.256 17.796 24.48 17.236 24.48 16.2V10.796H22.52ZM17.312 21.464L15.66 21.884C17.312 27.708 20.42 32.804 24.732 35.24C25.068 34.708 25.712 33.952 26.188 33.532C21.988 31.488 18.824 26.7 17.312 21.464ZM23.08 20.316V20.764C22.212 25.888 19.58 31.124 15.38 33.868C15.856 34.232 16.472 34.82 16.78 35.296C21.26 32.272 24.032 26.756 25.124 20.68L23.836 20.204L23.472 20.316H23.08ZM1.156 12.364V14.184H11.544V12.364H1.156ZM0.82 27.68V29.5H11.908V27.68H0.82ZM0.148 16.984V18.804H12.608V16.984H0.148ZM0.54 22.808V24.628H12.272V22.808H0.54ZM5.468 9.536V17.628H7.428V9.536H5.468ZM5.468 23.564V35.184H7.428V23.564H5.468ZM9.248 18.692C8.94 19.784 8.324 21.436 7.848 22.472L9.416 22.948C9.948 21.968 10.48 20.512 11.04 19.168L9.248 18.692ZM2.108 19.14C2.668 20.372 3.2 21.968 3.34 22.976L5.02 22.5C4.88 21.52 4.32 19.924 3.704 18.748L2.108 19.14ZM37.192 32.188V34.12H50.716V32.188H37.192ZM36.24 12.308V14.184H46.516V12.308H36.24ZM37.5 9.396C35.876 12.448 32.656 16.06 28.036 18.58C28.512 18.944 29.212 19.672 29.52 20.204C34.392 17.32 37.752 13.512 39.852 9.872L37.5 9.396ZM45.816 12.308V12.672C42.904 20.036 35.148 25.524 27.896 27.624C28.344 28.072 28.876 28.94 29.128 29.5C36.744 27.036 44.64 21.408 48 12.952L46.6 12.196L46.208 12.308H45.816ZM32.74 17.292C34.952 18.86 37.612 21.212 38.788 22.808L40.496 21.296C39.208 19.7 36.52 17.46 34.308 15.948L32.74 17.292ZM49.68 23.34V35.296H51.836V23.34H49.68ZM38.144 23.34H37.724L36.044 24.992V35.24H38.144V25.272H50.744V23.34H38.144ZM68.608 13.764H78.968V22.864H68.608V13.764ZM66.872 12.14V24.488H80.76V12.14H66.872ZM73.032 9.424C72.78 10.432 72.22 11.888 71.772 12.896L73.508 13.316C74.04 12.448 74.74 11.132 75.328 9.844L73.032 9.424ZM70.624 25.468C72.248 26.364 74.208 27.792 75.132 28.828L76.504 27.624C75.524 26.56 73.536 25.216 71.884 24.376L70.624 25.468ZM77.428 28.1C78.828 29.976 80.088 32.524 80.536 34.26L82.216 33.448C81.74 31.712 80.452 29.192 78.996 27.316L77.428 28.1ZM70.176 27.428V32.72C70.176 34.652 70.68 35.184 72.724 35.184C73.144 35.184 75.44 35.184 75.888 35.184C77.484 35.184 78.016 34.512 78.212 31.768C77.68 31.628 76.924 31.348 76.532 31.04C76.476 33.168 76.336 33.42 75.664 33.42C75.188 33.42 73.312 33.42 72.948 33.42C72.136 33.42 71.996 33.336 71.996 32.72V27.428H70.176ZM67.46 27.848C67.124 30.004 66.424 32.244 65.024 33.56L66.592 34.456C68.104 33.028 68.748 30.564 69.14 28.268L67.46 27.848ZM73.2 13.988C72.556 15.668 71.212 17.628 69.112 19.084C69.476 19.28 69.952 19.7 70.204 20.008C72.472 18.356 73.816 16.228 74.656 14.184L73.2 13.988ZM73.34 15.276L72.724 16.48H77.12V15.276H73.34ZM76.616 15.276V15.528C75.636 18.608 72.948 20.848 70.176 21.856C70.512 22.136 70.904 22.64 71.1 22.976C74.124 21.744 76.924 19.336 78.1 15.612L77.176 15.22L76.896 15.276H76.616ZM69.28 16.9C72.08 18.132 75.356 20.232 77.008 21.772L78.072 20.68C76.392 19.224 73.06 17.152 70.316 15.92L69.28 16.9ZM60.488 9.508C59.788 11.356 58.5 14.1 57.52 15.724L58.92 16.34C59.956 14.772 61.272 12.252 62.28 10.18L60.488 9.508ZM63.456 12.7C62 15.64 59.48 19.812 57.492 22.304L58.752 22.976C60.768 20.568 63.344 16.592 65.192 13.484L63.456 12.7ZM56.008 15.304C57.492 16.704 59.172 18.692 59.872 20.036L61.048 18.496C60.32 17.236 58.612 15.332 57.128 13.96L56.008 15.304ZM62.392 19.028C63.428 20.932 64.38 23.452 64.688 25.02L66.256 24.348C65.976 22.78 64.94 20.316 63.876 18.468L62.392 19.028ZM55.784 21.884L56.008 23.76C58.444 23.592 61.636 23.396 64.8 23.2V21.408C61.44 21.604 58.108 21.772 55.784 21.884ZM62.924 25.832C63.568 27.456 64.1 29.584 64.24 30.984L65.808 30.508C65.668 29.136 65.08 27.008 64.408 25.412L62.924 25.832ZM57.464 25.496C57.156 27.932 56.624 30.452 55.728 32.16C56.148 32.328 56.96 32.692 57.296 32.944C58.164 31.152 58.836 28.436 59.2 25.804L57.464 25.496ZM60.292 22.696V35.24H62.112V22.696H60.292ZM95.544 10.348C95.348 14.072 95.348 27.54 83.924 33.364C84.568 33.84 85.268 34.484 85.632 35.016C97.224 28.716 97.644 14.744 97.868 10.348H95.544ZM97.784 10.908L95.768 11.104C95.964 13.68 96.748 29.332 108.62 35.016C108.956 34.428 109.6 33.728 110.216 33.252C98.68 27.96 97.868 13.092 97.784 10.908ZM128.836 14.688V16.648H137.88V14.688H128.836ZM129.396 9.48C128.752 14.324 127.576 19.084 125.588 22.136C126.064 22.472 126.876 23.228 127.184 23.592C129.284 20.26 130.628 15.108 131.44 9.788L129.396 9.48ZM134.352 15.724C133.4 24.264 131.16 30.228 125.476 33.588C125.84 34.008 126.456 34.876 126.652 35.324C132.728 31.404 135.192 25.216 136.34 15.92L134.352 15.724ZM129.872 16.452L128.08 16.732C129.284 25.104 131.608 32.02 136.564 35.268C136.9 34.764 137.544 34.008 138.02 33.616C133.26 30.788 130.936 24.124 129.872 16.452ZM118.588 9.48V24.18H120.464V9.48H118.588ZM115.816 12.672H123.46V17.348H115.816V12.672ZM114.024 11.188V18.832H125.308V11.188H114.024ZM115.144 21.548H124.104V23.368H115.144V21.548ZM113.324 20.12V24.796H125.98V20.12H113.324ZM112.12 26.588L112.176 28.268C116.012 28.212 121.808 28.128 127.38 27.988L127.464 26.392C121.78 26.504 115.9 26.588 112.12 26.588ZM117.72 24.348C116.628 26.504 115.032 29.36 113.884 31.152L115.62 31.656C116.74 29.836 118.336 27.036 119.512 24.768L117.72 24.348ZM115.48 30.648C118.728 31.824 122.004 33.42 123.936 34.792L125.28 33.476C123.236 32.104 119.792 30.508 116.516 29.388L115.48 30.648ZM122.76 27.26C121.724 31.208 118.588 33 112.792 33.7C113.128 34.12 113.492 34.82 113.604 35.352C119.988 34.26 123.46 32.132 124.58 27.568L122.76 27.26ZM112.092 14.184V15.808H114.78V15.696H124.44V15.808H127.296V14.184H124.44V14.296H114.78V14.184H112.092ZM165.842 28.5078C165.842 29.4193 166.33 30.0378 167.307 30.3633C167.827 30.526 168.267 30.7214 168.625 30.9492C169.016 31.1771 169.211 31.4212 169.211 31.6816C169.211 32.5605 168.804 33 167.99 33H156.174C155.62 33 155.295 32.9023 155.197 32.707C155.1 32.4792 155.051 32.1374 155.051 31.6816C155.051 31.4212 155.262 31.1771 155.686 30.9492C156.109 30.7214 156.581 30.526 157.102 30.3633C158.111 30.0378 158.615 29.4193 158.615 28.5078V5.85156C157.997 6.07943 157.46 6.24219 157.004 6.33984C156.548 6.40495 156.011 6.51888 155.393 6.68164C155.002 6.7793 154.644 6.69792 154.318 6.4375C154.025 6.14453 153.83 5.80273 153.732 5.41211C153.635 5.02148 153.667 4.63086 153.83 4.24023C153.993 3.81706 154.367 3.52409 154.953 3.36133C155.995 3.06836 156.923 2.79167 157.736 2.53125C158.55 2.27083 159.283 2.02669 159.934 1.79883C160.617 1.53841 161.252 1.31055 161.838 1.11523C162.424 0.88737 163.026 0.692057 163.645 0.529297C163.775 0.496745 163.97 0.480469 164.23 0.480469C164.491 0.447917 164.735 0.480469 164.963 0.578125C165.191 0.643229 165.386 0.80599 165.549 1.06641C165.744 1.29427 165.842 1.65234 165.842 2.14062V28.5078ZM183.225 28.5078C183.225 29.4193 183.713 30.0378 184.689 30.3633C185.21 30.526 185.65 30.7214 186.008 30.9492C186.398 31.1771 186.594 31.4212 186.594 31.6816C186.594 32.5605 186.187 33 185.373 33H173.557C173.003 33 172.678 32.9023 172.58 32.707C172.482 32.4792 172.434 32.1374 172.434 31.6816C172.434 31.4212 172.645 31.1771 173.068 30.9492C173.492 30.7214 173.964 30.526 174.484 30.3633C175.493 30.0378 175.998 29.4193 175.998 28.5078V5.85156C175.38 6.07943 174.842 6.24219 174.387 6.33984C173.931 6.40495 173.394 6.51888 172.775 6.68164C172.385 6.7793 172.027 6.69792 171.701 6.4375C171.408 6.14453 171.213 5.80273 171.115 5.41211C171.018 5.02148 171.05 4.63086 171.213 4.24023C171.376 3.81706 171.75 3.52409 172.336 3.36133C173.378 3.06836 174.305 2.79167 175.119 2.53125C175.933 2.27083 176.665 2.02669 177.316 1.79883C178 1.53841 178.635 1.31055 179.221 1.11523C179.807 0.88737 180.409 0.692057 181.027 0.529297C181.158 0.496745 181.353 0.480469 181.613 0.480469C181.874 0.447917 182.118 0.480469 182.346 0.578125C182.574 0.643229 182.769 0.80599 182.932 1.06641C183.127 1.29427 183.225 1.65234 183.225 2.14062V28.5078ZM213.205 23.5273C213.205 25.1224 212.847 26.5384 212.131 27.7754C211.415 29.0124 210.422 30.0703 209.152 30.9492C207.915 31.7956 206.451 32.4466 204.758 32.9023C203.065 33.3255 201.258 33.5371 199.338 33.5371C196.896 33.5371 194.732 33.293 192.844 32.8047C190.988 32.3164 189.377 31.3887 188.01 30.0215C187.88 29.8913 187.814 29.696 187.814 29.4355C187.814 29.1426 187.863 28.8659 187.961 28.6055C188.091 28.3451 188.238 28.1497 188.4 28.0195C188.596 27.8893 188.824 27.8893 189.084 28.0195C190.321 28.7682 191.704 29.3379 193.234 29.7285C194.764 30.0866 196.506 30.2331 198.459 30.168C199.37 30.1354 200.233 29.9727 201.047 29.6797C201.861 29.3867 202.577 28.9961 203.195 28.5078C203.846 27.987 204.351 27.3685 204.709 26.6523C205.1 25.9036 205.295 25.0736 205.295 24.1621C205.327 22.3392 204.855 20.9232 203.879 19.9141C202.935 18.9049 201.779 18.2376 200.412 17.9121C199.045 17.554 197.596 17.5052 196.066 17.7656C194.569 18.026 193.267 18.498 192.16 19.1816C192.062 19.2467 191.916 19.2793 191.721 19.2793C191.558 19.2793 191.379 19.2305 191.184 19.1328C191.021 19.0352 190.874 18.8887 190.744 18.6934C190.614 18.4655 190.549 18.1725 190.549 17.8145V3.45898C190.549 2.9056 190.712 2.40104 191.037 1.94531C191.363 1.45703 191.981 1.21289 192.893 1.21289C194.455 1.21289 195.969 1.22917 197.434 1.26172C198.931 1.29427 200.412 1.32682 201.877 1.35938C203.342 1.35938 204.823 1.35938 206.32 1.35938C207.85 1.35938 209.445 1.31055 211.105 1.21289C211.594 1.14779 211.822 1.35938 211.789 1.84766C211.789 2.33594 211.626 2.88932 211.301 3.50781C210.975 4.1263 210.536 4.71224 209.982 5.26562C209.462 5.78646 208.957 6.04688 208.469 6.04688C206.743 6.04688 205.262 6.01432 204.025 5.94922C202.788 5.88411 201.633 5.83529 200.559 5.80273C199.517 5.73763 198.475 5.72135 197.434 5.75391C196.424 5.78646 195.285 5.88411 194.016 6.04688V14.6895C195.871 14.0059 197.906 13.6478 200.119 13.6152C202.365 13.5501 204.449 13.8594 206.369 14.543C208.322 15.2266 209.95 16.3008 211.252 17.7656C212.554 19.2305 213.205 21.151 213.205 23.5273ZM223.215 7.90234C223.215 8.55339 223.443 9.17188 223.898 9.75781C224.387 10.3438 224.973 10.8971 225.656 11.418C226.372 11.9062 227.137 12.3457 227.951 12.7363C228.798 13.127 229.562 13.4525 230.246 13.7129C231.06 13.2572 231.711 12.6061 232.199 11.7598C232.72 10.8809 232.98 9.92057 232.98 8.87891C232.98 8.0651 232.834 7.33268 232.541 6.68164C232.248 5.99805 231.841 5.44466 231.32 5.02148C230.832 4.56576 230.246 4.22396 229.562 3.99609C228.911 3.73568 228.228 3.60547 227.512 3.60547C227.023 3.60547 226.519 3.7194 225.998 3.94727C225.51 4.17513 225.054 4.48438 224.631 4.875C224.24 5.26562 223.898 5.72135 223.605 6.24219C223.345 6.76302 223.215 7.31641 223.215 7.90234ZM224.973 18.8398C224.419 19.0677 223.931 19.4095 223.508 19.8652C223.085 20.2884 222.727 20.793 222.434 21.3789C222.141 21.9323 221.913 22.5345 221.75 23.1855C221.587 23.8366 221.506 24.4714 221.506 25.0898C221.506 25.8711 221.669 26.6198 221.994 27.3359C222.32 28.0521 222.743 28.6706 223.264 29.1914C223.817 29.7122 224.452 30.1354 225.168 30.4609C225.884 30.7539 226.633 30.9004 227.414 30.9004C228.13 30.9004 228.83 30.7702 229.514 30.5098C230.23 30.2168 230.848 29.8424 231.369 29.3867C231.923 28.8984 232.362 28.3288 232.688 27.6777C233.046 27.0267 233.225 26.3268 233.225 25.5781C233.225 24.4714 232.932 23.5762 232.346 22.8926C231.792 22.1764 231.092 21.5905 230.246 21.1348C229.432 20.6465 228.537 20.2396 227.561 19.9141C226.617 19.556 225.754 19.1979 224.973 18.8398ZM214.963 25.3828C214.963 23.1367 215.581 21.3789 216.818 20.1094C218.088 18.8398 219.764 17.8145 221.848 17.0332C221.132 16.7402 220.432 16.3333 219.748 15.8125C219.064 15.2917 218.446 14.7057 217.893 14.0547C217.372 13.4036 216.949 12.7201 216.623 12.0039C216.298 11.2552 216.135 10.4902 216.135 9.70898C216.135 8.4069 216.411 7.21875 216.965 6.14453C217.551 5.03776 218.365 4.07747 219.406 3.26367C220.448 2.44987 221.701 1.8151 223.166 1.35938C224.663 0.903646 226.34 0.675781 228.195 0.675781C229.53 0.675781 230.881 0.838542 232.248 1.16406C233.615 1.45703 234.836 1.89648 235.91 2.48242C237.017 3.06836 237.912 3.80078 238.596 4.67969C239.279 5.55859 239.621 6.58398 239.621 7.75586C239.621 8.63477 239.458 9.43229 239.133 10.1484C238.807 10.8646 238.368 11.4993 237.814 12.0527C237.294 12.6061 236.659 13.0944 235.91 13.5176C235.194 13.9408 234.429 14.3151 233.615 14.6406C234.689 14.9987 235.682 15.4707 236.594 16.0566C237.538 16.6426 238.335 17.3099 238.986 18.0586C239.637 18.8073 240.142 19.6211 240.5 20.5C240.891 21.3789 241.086 22.3066 241.086 23.2832C241.086 25.0085 240.695 26.5221 239.914 27.8242C239.165 29.0938 238.124 30.168 236.789 31.0469C235.487 31.8932 233.973 32.528 232.248 32.9512C230.523 33.3743 228.684 33.5697 226.73 33.5371C225.298 33.5371 223.866 33.3743 222.434 33.0488C221.034 32.7559 219.781 32.2839 218.674 31.6328C217.567 30.9818 216.672 30.1517 215.988 29.1426C215.305 28.1009 214.963 26.8477 214.963 25.3828ZM254.509 10.348C254.313 14.072 254.313 27.54 242.889 33.364C243.533 33.84 244.233 34.484 244.597 35.016C256.189 28.716 256.609 14.744 256.833 10.348H254.509ZM256.749 10.908L254.733 11.104C254.929 13.68 255.713 29.332 267.585 35.016C267.921 34.428 268.565 33.728 269.181 33.252C257.645 27.96 256.833 13.092 256.749 10.908Z" fill="#38241B"/>
</svg>
