<svg width="228" height="36" viewBox="0 0 228 36" fill="none" xmlns="http://www.w3.org/2000/svg">
<path d="M14.568 20.316V22.052H23.724V20.316H14.568ZM13.504 10.796V35.268H15.436V12.672H23.528V10.796H13.504ZM22.52 10.796V16.172C22.52 16.48 22.408 16.592 21.96 16.62C21.512 16.648 20.056 16.648 18.32 16.592C18.6 17.124 18.88 17.88 18.964 18.44C21.12 18.44 22.52 18.412 23.388 18.104C24.256 17.796 24.48 17.236 24.48 16.2V10.796H22.52ZM17.312 21.464L15.66 21.884C17.312 27.708 20.42 32.804 24.732 35.24C25.068 34.708 25.712 33.952 26.188 33.532C21.988 31.488 18.824 26.7 17.312 21.464ZM23.08 20.316V20.764C22.212 25.888 19.58 31.124 15.38 33.868C15.856 34.232 16.472 34.82 16.78 35.296C21.26 32.272 24.032 26.756 25.124 20.68L23.836 20.204L23.472 20.316H23.08ZM1.156 12.364V14.184H11.544V12.364H1.156ZM0.82 27.68V29.5H11.908V27.68H0.82ZM0.148 16.984V18.804H12.608V16.984H0.148ZM0.54 22.808V24.628H12.272V22.808H0.54ZM5.468 9.536V17.628H7.428V9.536H5.468ZM5.468 23.564V35.184H7.428V23.564H5.468ZM9.248 18.692C8.94 19.784 8.324 21.436 7.848 22.472L9.416 22.948C9.948 21.968 10.48 20.512 11.04 19.168L9.248 18.692ZM2.108 19.14C2.668 20.372 3.2 21.968 3.34 22.976L5.02 22.5C4.88 21.52 4.32 19.924 3.704 18.748L2.108 19.14ZM37.192 32.188V34.12H50.716V32.188H37.192ZM36.24 12.308V14.184H46.516V12.308H36.24ZM37.5 9.396C35.876 12.448 32.656 16.06 28.036 18.58C28.512 18.944 29.212 19.672 29.52 20.204C34.392 17.32 37.752 13.512 39.852 9.872L37.5 9.396ZM45.816 12.308V12.672C42.904 20.036 35.148 25.524 27.896 27.624C28.344 28.072 28.876 28.94 29.128 29.5C36.744 27.036 44.64 21.408 48 12.952L46.6 12.196L46.208 12.308H45.816ZM32.74 17.292C34.952 18.86 37.612 21.212 38.788 22.808L40.496 21.296C39.208 19.7 36.52 17.46 34.308 15.948L32.74 17.292ZM49.68 23.34V35.296H51.836V23.34H49.68ZM38.144 23.34H37.724L36.044 24.992V35.24H38.144V25.272H50.744V23.34H38.144ZM68.608 13.764H78.968V22.864H68.608V13.764ZM66.872 12.14V24.488H80.76V12.14H66.872ZM73.032 9.424C72.78 10.432 72.22 11.888 71.772 12.896L73.508 13.316C74.04 12.448 74.74 11.132 75.328 9.844L73.032 9.424ZM70.624 25.468C72.248 26.364 74.208 27.792 75.132 28.828L76.504 27.624C75.524 26.56 73.536 25.216 71.884 24.376L70.624 25.468ZM77.428 28.1C78.828 29.976 80.088 32.524 80.536 34.26L82.216 33.448C81.74 31.712 80.452 29.192 78.996 27.316L77.428 28.1ZM70.176 27.428V32.72C70.176 34.652 70.68 35.184 72.724 35.184C73.144 35.184 75.44 35.184 75.888 35.184C77.484 35.184 78.016 34.512 78.212 31.768C77.68 31.628 76.924 31.348 76.532 31.04C76.476 33.168 76.336 33.42 75.664 33.42C75.188 33.42 73.312 33.42 72.948 33.42C72.136 33.42 71.996 33.336 71.996 32.72V27.428H70.176ZM67.46 27.848C67.124 30.004 66.424 32.244 65.024 33.56L66.592 34.456C68.104 33.028 68.748 30.564 69.14 28.268L67.46 27.848ZM73.2 13.988C72.556 15.668 71.212 17.628 69.112 19.084C69.476 19.28 69.952 19.7 70.204 20.008C72.472 18.356 73.816 16.228 74.656 14.184L73.2 13.988ZM73.34 15.276L72.724 16.48H77.12V15.276H73.34ZM76.616 15.276V15.528C75.636 18.608 72.948 20.848 70.176 21.856C70.512 22.136 70.904 22.64 71.1 22.976C74.124 21.744 76.924 19.336 78.1 15.612L77.176 15.22L76.896 15.276H76.616ZM69.28 16.9C72.08 18.132 75.356 20.232 77.008 21.772L78.072 20.68C76.392 19.224 73.06 17.152 70.316 15.92L69.28 16.9ZM60.488 9.508C59.788 11.356 58.5 14.1 57.52 15.724L58.92 16.34C59.956 14.772 61.272 12.252 62.28 10.18L60.488 9.508ZM63.456 12.7C62 15.64 59.48 19.812 57.492 22.304L58.752 22.976C60.768 20.568 63.344 16.592 65.192 13.484L63.456 12.7ZM56.008 15.304C57.492 16.704 59.172 18.692 59.872 20.036L61.048 18.496C60.32 17.236 58.612 15.332 57.128 13.96L56.008 15.304ZM62.392 19.028C63.428 20.932 64.38 23.452 64.688 25.02L66.256 24.348C65.976 22.78 64.94 20.316 63.876 18.468L62.392 19.028ZM55.784 21.884L56.008 23.76C58.444 23.592 61.636 23.396 64.8 23.2V21.408C61.44 21.604 58.108 21.772 55.784 21.884ZM62.924 25.832C63.568 27.456 64.1 29.584 64.24 30.984L65.808 30.508C65.668 29.136 65.08 27.008 64.408 25.412L62.924 25.832ZM57.464 25.496C57.156 27.932 56.624 30.452 55.728 32.16C56.148 32.328 56.96 32.692 57.296 32.944C58.164 31.152 58.836 28.436 59.2 25.804L57.464 25.496ZM60.292 22.696V35.24H62.112V22.696H60.292ZM95.544 10.348C95.348 14.072 95.348 27.54 83.924 33.364C84.568 33.84 85.268 34.484 85.632 35.016C97.224 28.716 97.644 14.744 97.868 10.348H95.544ZM97.784 10.908L95.768 11.104C95.964 13.68 96.748 29.332 108.62 35.016C108.956 34.428 109.6 33.728 110.216 33.252C98.68 27.96 97.868 13.092 97.784 10.908ZM128.836 14.688V16.648H137.88V14.688H128.836ZM129.396 9.48C128.752 14.324 127.576 19.084 125.588 22.136C126.064 22.472 126.876 23.228 127.184 23.592C129.284 20.26 130.628 15.108 131.44 9.788L129.396 9.48ZM134.352 15.724C133.4 24.264 131.16 30.228 125.476 33.588C125.84 34.008 126.456 34.876 126.652 35.324C132.728 31.404 135.192 25.216 136.34 15.92L134.352 15.724ZM129.872 16.452L128.08 16.732C129.284 25.104 131.608 32.02 136.564 35.268C136.9 34.764 137.544 34.008 138.02 33.616C133.26 30.788 130.936 24.124 129.872 16.452ZM118.588 9.48V24.18H120.464V9.48H118.588ZM115.816 12.672H123.46V17.348H115.816V12.672ZM114.024 11.188V18.832H125.308V11.188H114.024ZM115.144 21.548H124.104V23.368H115.144V21.548ZM113.324 20.12V24.796H125.98V20.12H113.324ZM112.12 26.588L112.176 28.268C116.012 28.212 121.808 28.128 127.38 27.988L127.464 26.392C121.78 26.504 115.9 26.588 112.12 26.588ZM117.72 24.348C116.628 26.504 115.032 29.36 113.884 31.152L115.62 31.656C116.74 29.836 118.336 27.036 119.512 24.768L117.72 24.348ZM115.48 30.648C118.728 31.824 122.004 33.42 123.936 34.792L125.28 33.476C123.236 32.104 119.792 30.508 116.516 29.388L115.48 30.648ZM122.76 27.26C121.724 31.208 118.588 33 112.792 33.7C113.128 34.12 113.492 34.82 113.604 35.352C119.988 34.26 123.46 32.132 124.58 27.568L122.76 27.26ZM112.092 14.184V15.808H114.78V15.696H124.44V15.808H127.296V14.184H124.44V14.296H114.78V14.184H112.092ZM170.09 21.0859V6.7793C168.137 9.2207 166.346 11.6133 164.719 13.957C163.091 16.2682 161.512 18.6445 159.982 21.0859H170.09ZM177.316 21.2812C177.382 21.2812 177.495 21.265 177.658 21.2324C177.854 21.1999 178 21.1673 178.098 21.1348C178.456 21.1022 178.781 21.0859 179.074 21.0859C179.367 21.0534 179.644 21.0371 179.904 21.0371C180.555 21.0371 181.06 21.1673 181.418 21.4277C181.776 21.6556 182.02 22.1439 182.15 22.8926C182.248 23.7064 182.085 24.2923 181.662 24.6504C181.271 24.9759 180.734 25.1224 180.051 25.0898L177.316 24.9922C177.316 25.1875 177.3 25.4967 177.268 25.9199C177.268 26.3431 177.268 27.043 177.268 28.0195C177.268 28.6706 177.382 29.1914 177.609 29.582C177.837 29.9727 178.228 30.2493 178.781 30.4121C179.302 30.5423 179.725 30.7214 180.051 30.9492C180.376 31.1771 180.539 31.4375 180.539 31.7305C180.539 32.5768 180.083 33 179.172 33H168.137C167.225 33 166.77 32.5768 166.77 31.7305C166.77 31.112 167.111 30.7214 167.795 30.5586C169.423 30.2005 170.188 29.4681 170.09 28.3613V24.9922H155.197C154.904 24.9922 154.628 24.9108 154.367 24.748C154.139 24.5527 153.944 24.3249 153.781 24.0645C153.651 23.7715 153.586 23.446 153.586 23.0879C153.586 22.7298 153.716 22.3555 153.977 21.9648C155.474 19.7188 157.004 17.5215 158.566 15.373C160.129 13.2246 161.61 11.2552 163.01 9.46484C164.442 7.67448 165.712 6.12826 166.818 4.82617C167.958 3.52409 168.853 2.59635 169.504 2.04297C169.927 1.6849 170.529 1.3431 171.311 1.01758C172.124 0.692057 172.954 0.447917 173.801 0.285156C174.745 0.122396 175.559 0.122396 176.242 0.285156C176.958 0.447917 177.316 0.854818 177.316 1.50586V21.2812ZM196.311 28.5078C196.311 29.4193 196.799 30.0378 197.775 30.3633C198.296 30.526 198.736 30.7214 199.094 30.9492C199.484 31.1771 199.68 31.4212 199.68 31.6816C199.68 32.5605 199.273 33 198.459 33H186.643C186.089 33 185.764 32.9023 185.666 32.707C185.568 32.4792 185.52 32.1374 185.52 31.6816C185.52 31.4212 185.731 31.1771 186.154 30.9492C186.577 30.7214 187.049 30.526 187.57 30.3633C188.579 30.0378 189.084 29.4193 189.084 28.5078V5.85156C188.465 6.07943 187.928 6.24219 187.473 6.33984C187.017 6.40495 186.48 6.51888 185.861 6.68164C185.471 6.7793 185.113 6.69792 184.787 6.4375C184.494 6.14453 184.299 5.80273 184.201 5.41211C184.104 5.02148 184.136 4.63086 184.299 4.24023C184.462 3.81706 184.836 3.52409 185.422 3.36133C186.464 3.06836 187.391 2.79167 188.205 2.53125C189.019 2.27083 189.751 2.02669 190.402 1.79883C191.086 1.53841 191.721 1.31055 192.307 1.11523C192.893 0.88737 193.495 0.692057 194.113 0.529297C194.243 0.496745 194.439 0.480469 194.699 0.480469C194.96 0.447917 195.204 0.480469 195.432 0.578125C195.66 0.643229 195.855 0.80599 196.018 1.06641C196.213 1.29427 196.311 1.65234 196.311 2.14062V28.5078ZM213.103 10.348C212.907 14.072 212.907 27.54 201.483 33.364C202.127 33.84 202.827 34.484 203.191 35.016C214.783 28.716 215.203 14.744 215.427 10.348H213.103ZM215.343 10.908L213.327 11.104C213.523 13.68 214.307 29.332 226.179 35.016C226.515 34.428 227.159 33.728 227.775 33.252C216.239 27.96 215.427 13.092 215.343 10.908Z" fill="#38241B"/>
</svg>
