<svg width="553" height="49" viewBox="0 0 553 49" fill="none" xmlns="http://www.w3.org/2000/svg">
<path d="M9.548 19.188V43.24H11.508V21.064H23.912V43.016H25.928V19.188H9.548ZM12.656 25.124V26.776H22.96V25.124H12.656ZM10.612 39.684V41.56H25.032V39.684H10.612ZM16.912 21.96V30.836H18.62V21.96H16.912ZM15.456 31.424H20.188V35.764H15.456V31.424ZM13.832 29.856V37.36H21.868V29.856H13.832ZM6.636 17.62C5.264 21.876 2.968 26.104 0.448 28.848C0.812 29.352 1.4 30.5 1.568 31.004C4.368 27.784 6.972 22.968 8.568 18.18L6.636 17.62ZM4.312 24.48V43.296H6.3V22.52L6.272 22.492L4.312 24.48ZM40.544 18.348C40.348 22.072 40.348 35.54 28.924 41.364C29.568 41.84 30.268 42.484 30.632 43.016C42.224 36.716 42.644 22.744 42.868 18.348H40.544ZM42.784 18.908L40.768 19.104C40.964 21.68 41.748 37.332 53.62 43.016C53.956 42.428 54.6 41.728 55.216 41.252C43.68 35.96 42.868 21.092 42.784 18.908ZM57.456 35.4V37.192H82.572V35.4H57.456ZM71.4 36.016L69.356 36.352C71.26 40.86 75.18 42.68 81.956 43.24C82.208 42.652 82.712 41.784 83.188 41.336C76.86 41.028 72.94 39.656 71.4 36.016ZM73.36 34.056C75.264 34.56 77.728 35.428 79.016 36.072L79.94 34.588C78.596 34 76.104 33.188 74.228 32.768L73.36 34.056ZM66.668 26.328V27.924H82.908V26.328H66.668ZM76.748 24.256V30.584C76.748 30.892 76.636 30.976 76.272 30.976C75.908 31.004 74.704 31.004 73.304 30.976C73.584 31.424 73.836 32.068 73.948 32.6C75.796 32.6 76.972 32.6 77.784 32.32C78.54 32.068 78.736 31.592 78.736 30.612V24.256H76.748ZM57.288 26.132V27.868H64.68V26.132H57.288ZM63.56 17.48V33.132H65.52V17.48H63.56ZM58.716 18.32V24.088H64.68V22.408H60.508V18.32H58.716ZM68.796 28.932C69.916 29.744 71.176 30.976 71.736 31.844L73.22 30.836C72.604 29.996 71.316 28.82 70.196 28.036L68.796 28.932ZM68.32 21.4C69.664 22.212 71.232 23.416 71.96 24.284L73.248 23.668C72.492 22.772 70.896 21.568 69.58 20.812L68.32 21.4ZM71.064 20.28C72.66 21.064 74.508 22.324 75.404 23.248L76.58 22.548C75.656 21.596 73.752 20.392 72.184 19.636L71.064 20.28ZM79.548 18.824V19.104C77.504 22.464 72.184 24.144 66.948 24.732C67.256 25.096 67.648 25.74 67.816 26.16C73.444 25.348 78.988 23.528 81.396 19.356L80.276 18.768L79.912 18.824H79.548ZM74.284 17.48C72.744 18.88 69.944 20.224 66.248 21.148C66.612 21.428 67.116 21.988 67.368 22.38C71.26 21.204 74.144 19.72 76.132 17.872L74.284 17.48ZM73.192 18.824L71.54 20.14H80.108V18.824H73.192ZM59.164 26.944V28.288C59.164 29.464 58.856 31.564 57.036 32.908C57.54 33.16 58.324 33.552 58.688 33.888C60.62 32.32 61.068 29.8 61.068 28.316V26.944H59.164ZM68.796 32.6V34.616C68.796 36.884 67.48 40.02 56.812 41.588C57.204 42.064 57.736 42.82 57.988 43.324C69.412 41.616 70.896 37.752 70.896 34.672V32.6H68.796ZM288.478 22.184V23.528H304.55V22.184H288.478ZM288.142 34.168V35.484H304.97V34.168H288.142ZM291.138 36.324C292.062 37.108 293.098 38.228 293.574 38.984L295.002 38.172C294.526 37.416 293.434 36.324 292.482 35.624L291.138 36.324ZM291.25 28.008H301.834V29.24H291.25V28.008ZM291.25 25.768H301.834V26.944H291.25V25.768ZM289.57 24.676V30.36H303.57V24.676H289.57ZM299.146 33.132V38.032C299.146 38.312 299.062 38.396 298.754 38.396C298.446 38.424 297.382 38.424 296.234 38.396C296.43 38.76 296.654 39.208 296.738 39.628C298.418 39.628 299.482 39.628 300.098 39.404C300.77 39.208 300.938 38.928 300.938 38.088V33.132H299.146ZM288.534 31.788L288.646 33.132C292.258 33.076 297.438 32.908 302.478 32.74L302.534 31.62C297.326 31.732 292.006 31.788 288.534 31.788ZM300.126 31.088C301.19 31.9 302.534 33.16 303.178 34L304.382 33.076C303.738 32.292 302.422 31.116 301.274 30.304L300.126 31.088ZM295.534 20.896V32.32L297.326 32.208V20.896H295.534ZM285.258 18.768V43.268H287.19V20.448H305.894V43.128H307.91V18.768H285.258ZM286.21 40.104V41.784H306.762V40.104H286.21ZM323.534 29.66V31.2H337.31V29.66H323.534ZM323.03 41.14V42.736H337.506V41.14H323.03ZM327.706 17.508V21.008H329.302V17.508H327.706ZM331.29 17.508V21.008H332.886V17.508H331.29ZM326.67 33.916H334.006V36.38H326.67V33.916ZM324.934 32.544V37.752H335.826V32.544H324.934ZM326.026 24.844H334.65V26.776H326.026V24.844ZM326.026 21.54H334.65V23.444H326.026V21.54ZM324.374 20.084V28.26H336.358V20.084H324.374ZM326.25 38.312C326.81 39.32 327.258 40.692 327.398 41.616L329.022 41.028C328.854 40.104 328.378 38.788 327.762 37.808L326.25 38.312ZM332.746 37.78C332.466 38.704 331.906 40.132 331.458 41.084L332.83 41.56C333.306 40.692 333.95 39.432 334.538 38.284L332.746 37.78ZM314.882 33.188V34.7H321.126V33.188H314.882ZM314.882 36.772V38.312H321.126V36.772H314.882ZM313.902 29.66V43.268H315.694V31.2H321.042V29.66H313.902ZM319.922 29.66V41.252C319.922 41.532 319.81 41.616 319.53 41.616C319.278 41.644 318.382 41.644 317.402 41.616C317.626 42.064 317.878 42.764 317.962 43.24C319.446 43.24 320.37 43.24 320.958 42.932C321.574 42.652 321.742 42.176 321.742 41.28V29.66H319.922ZM313.874 18.488V27H315.498V20.084H320.118V27H321.77V18.488H313.874ZM312.278 26.272V30.304H313.874V27.812H321.77V30.304H323.422V26.272H312.278ZM316.954 21.904V26.86H318.298V23.248H321.182V21.904H316.954ZM327.986 20.644V27.532H329.302V20.644H327.986ZM331.29 20.644V27.532H332.606V20.644H331.29ZM340.026 35.4V37.192H365.142V35.4H340.026ZM353.97 36.016L351.926 36.352C353.83 40.86 357.75 42.68 364.526 43.24C364.778 42.652 365.282 41.784 365.758 41.336C359.43 41.028 355.51 39.656 353.97 36.016ZM355.93 34.056C357.834 34.56 360.298 35.428 361.586 36.072L362.51 34.588C361.166 34 358.674 33.188 356.798 32.768L355.93 34.056ZM349.238 26.328V27.924H365.478V26.328H349.238ZM359.318 24.256V30.584C359.318 30.892 359.206 30.976 358.842 30.976C358.478 31.004 357.274 31.004 355.874 30.976C356.154 31.424 356.406 32.068 356.518 32.6C358.366 32.6 359.542 32.6 360.354 32.32C361.11 32.068 361.306 31.592 361.306 30.612V24.256H359.318ZM339.858 26.132V27.868H347.25V26.132H339.858ZM346.13 17.48V33.132H348.09V17.48H346.13ZM341.286 18.32V24.088H347.25V22.408H343.078V18.32H341.286ZM351.366 28.932C352.486 29.744 353.746 30.976 354.306 31.844L355.79 30.836C355.174 29.996 353.886 28.82 352.766 28.036L351.366 28.932ZM350.89 21.4C352.234 22.212 353.802 23.416 354.53 24.284L355.818 23.668C355.062 22.772 353.466 21.568 352.15 20.812L350.89 21.4ZM353.634 20.28C355.23 21.064 357.078 22.324 357.974 23.248L359.15 22.548C358.226 21.596 356.322 20.392 354.754 19.636L353.634 20.28ZM362.118 18.824V19.104C360.074 22.464 354.754 24.144 349.518 24.732C349.826 25.096 350.218 25.74 350.386 26.16C356.014 25.348 361.558 23.528 363.966 19.356L362.846 18.768L362.482 18.824H362.118ZM356.854 17.48C355.314 18.88 352.514 20.224 348.818 21.148C349.182 21.428 349.686 21.988 349.938 22.38C353.83 21.204 356.714 19.72 358.702 17.872L356.854 17.48ZM355.762 18.824L354.11 20.14H362.678V18.824H355.762ZM341.734 26.944V28.288C341.734 29.464 341.426 31.564 339.606 32.908C340.11 33.16 340.894 33.552 341.258 33.888C343.19 32.32 343.638 29.8 343.638 28.316V26.944H341.734ZM351.366 32.6V34.616C351.366 36.884 350.05 40.02 339.382 41.588C339.774 42.064 340.306 42.82 340.558 43.324C351.982 41.616 353.466 37.752 353.466 34.672V32.6H351.366Z" fill="white"/>
<path d="M99.1484 41.9297C99.1484 42.6589 99.0208 43.2604 98.7656 43.7344C98.5469 44.2448 98.0911 44.5 97.3984 44.5C96.6693 44.5 96.1771 44.2448 95.9219 43.7344C95.7031 43.2604 95.5938 42.6589 95.5938 41.9297V40.7812C94.2083 40.7448 92.8776 40.4896 91.6016 40.0156C90.3255 39.5417 89.1953 38.9036 88.2109 38.1016C87.2266 37.263 86.4427 36.2786 85.8594 35.1484C85.276 34.0182 84.9844 32.7604 84.9844 31.375C84.9844 29.8802 85.349 28.75 86.0781 27.9844C86.8073 27.1823 87.8646 26.7812 89.25 26.7812C90.3073 26.7812 91.1823 27.1276 91.875 27.8203C92.5677 28.4766 92.9141 29.388 92.9141 30.5547C92.9141 30.8464 92.7865 31.1927 92.5312 31.5938C92.3125 31.9583 92.0573 32.3594 91.7656 32.7969C91.5104 33.2344 91.2734 33.6536 91.0547 34.0547C90.8359 34.4557 90.7266 34.8021 90.7266 35.0938C90.7266 35.3854 90.8542 35.6771 91.1094 35.9688C91.401 36.224 91.7656 36.4792 92.2031 36.7344C92.6771 36.9531 93.2057 37.1536 93.7891 37.3359C94.3724 37.5182 94.974 37.6458 95.5938 37.7188V24.375C92.349 23.026 89.9792 21.5312 88.4844 19.8906C87.026 18.25 86.2969 16.3359 86.2969 14.1484C86.2969 12.8359 86.5339 11.5964 87.0078 10.4297C87.4818 9.22656 88.138 8.16927 88.9766 7.25781C89.8151 6.3099 90.7995 5.52604 91.9297 4.90625C93.0599 4.28646 94.2812 3.88542 95.5938 3.70312V2.77344C95.5938 1.97135 95.7031 1.35156 95.9219 0.914062C96.1771 0.440104 96.6693 0.203125 97.3984 0.203125C98.0911 0.203125 98.5469 0.440104 98.7656 0.914062C99.0208 1.35156 99.1484 1.97135 99.1484 2.77344V3.53906C100.935 3.61198 102.284 3.84896 103.195 4.25C104.143 4.65104 104.945 5.10677 105.602 5.61719C106.44 6.34635 107.096 7.14844 107.57 8.02344C108.044 8.89844 108.281 9.84635 108.281 10.8672C108.281 12.0339 107.898 12.9635 107.133 13.6562C106.404 14.349 105.401 14.6953 104.125 14.6953C103.104 14.6953 102.302 14.4219 101.719 13.875C101.135 13.2917 100.844 12.4714 100.844 11.4141C100.844 11.2682 100.898 11.0312 101.008 10.7031C101.117 10.375 101.245 10.0469 101.391 9.71875C101.536 9.39062 101.664 9.08073 101.773 8.78906C101.883 8.46094 101.938 8.20573 101.938 8.02344C101.938 7.6224 101.719 7.27604 101.281 6.98438C100.844 6.65625 100.133 6.45573 99.1484 6.38281V16.9375C100.971 17.6302 102.539 18.3594 103.852 19.125C105.201 19.8542 106.294 20.6927 107.133 21.6406C107.971 22.5521 108.591 23.5911 108.992 24.7578C109.393 25.888 109.576 27.2188 109.539 28.75C109.503 30.2448 109.211 31.6302 108.664 32.9062C108.117 34.1823 107.37 35.3307 106.422 36.3516C105.51 37.3359 104.435 38.1745 103.195 38.8672C101.956 39.5599 100.607 40.0703 99.1484 40.3984V41.9297ZM103.633 31.5391C103.633 30.3359 103.232 29.2057 102.43 28.1484C101.628 27.0547 100.534 26.2344 99.1484 25.6875V37.2812C100.534 36.7708 101.628 35.987 102.43 34.9297C103.232 33.8359 103.633 32.7057 103.633 31.5391ZM92.3125 11.0312C92.3125 11.8333 92.4948 12.599 92.8594 13.3281C93.224 14.0208 94.1354 14.7318 95.5938 15.4609V6.76562C94.5365 7.16667 93.7161 7.75 93.1328 8.51562C92.5859 9.28125 92.3125 10.1198 92.3125 11.0312ZM122.664 9.77344C121.57 9.84635 120.659 10.0104 119.93 10.2656C119.237 10.4844 118.635 10.7578 118.125 11.0859C117.615 11.4141 117.141 11.7969 116.703 12.2344C116.302 12.6354 115.828 13.0729 115.281 13.5469C114.771 13.9844 114.315 14.1849 113.914 14.1484C113.549 14.112 113.276 13.875 113.094 13.4375C112.948 12.9635 112.948 12.3073 113.094 11.4688C113.276 10.6302 113.677 9.60938 114.297 8.40625C114.479 8.11458 114.698 7.69531 114.953 7.14844C115.245 6.60156 115.555 6.10938 115.883 5.67188C116.247 5.19792 116.612 4.85156 116.977 4.63281C117.378 4.41406 117.779 4.48698 118.18 4.85156C118.799 5.39844 119.456 5.70833 120.148 5.78125C120.513 5.81771 120.878 5.79948 121.242 5.72656C121.643 5.61719 122.062 5.48958 122.5 5.34375C122.938 5.19792 123.411 5.07031 123.922 4.96094C124.432 4.8151 124.979 4.72396 125.562 4.6875C127.203 4.61458 128.734 4.72396 130.156 5.01562C131.578 5.27083 132.818 5.70833 133.875 6.32812C134.969 6.94792 135.826 7.73177 136.445 8.67969C137.065 9.6276 137.375 10.7396 137.375 12.0156C137.375 13 137.174 13.8932 136.773 14.6953C136.372 15.4609 135.844 16.1719 135.188 16.8281C134.531 17.4844 133.784 18.1042 132.945 18.6875C132.107 19.2344 131.25 19.7448 130.375 20.2188C131.688 20.4375 132.909 20.8385 134.039 21.4219C135.206 21.9688 136.208 22.6797 137.047 23.5547C137.922 24.4297 138.615 25.4505 139.125 26.6172C139.635 27.7474 139.891 28.987 139.891 30.3359C139.891 31.9766 139.508 33.4896 138.742 34.875C138.013 36.224 136.974 37.4089 135.625 38.4297C134.312 39.4505 132.727 40.2526 130.867 40.8359C129.044 41.3828 127.021 41.6745 124.797 41.7109C123.63 41.7109 122.445 41.6562 121.242 41.5469C120.076 41.4375 118.927 41.237 117.797 40.9453C116.667 40.6536 115.573 40.2344 114.516 39.6875C113.495 39.1406 112.583 38.4479 111.781 37.6094C111.635 37.4635 111.562 37.2448 111.562 36.9531C111.562 36.625 111.617 36.3333 111.727 36.0781C111.836 35.7865 111.982 35.5859 112.164 35.4766C112.383 35.3307 112.638 35.3307 112.93 35.4766C114.388 36.3151 115.992 36.9896 117.742 37.5C119.492 37.974 121.461 38.1745 123.648 38.1016C124.669 38.0651 125.635 37.8464 126.547 37.4453C127.458 37.0443 128.26 36.5156 128.953 35.8594C129.646 35.1667 130.193 34.3646 130.594 33.4531C131.031 32.5417 131.25 31.5755 131.25 30.5547C131.25 29.4245 130.885 28.4583 130.156 27.6562C129.464 26.8177 128.57 26.1615 127.477 25.6875C126.383 25.2135 125.18 24.9036 123.867 24.7578C122.591 24.612 121.37 24.6302 120.203 24.8125C119.693 24.8854 119.292 24.7214 119 24.3203C118.745 23.8828 118.654 23.4635 118.727 23.0625C118.836 22.5521 119.036 22.0417 119.328 21.5312C119.62 20.9844 120.057 20.6745 120.641 20.6016C121.625 20.4557 122.646 20.2734 123.703 20.0547C124.76 19.8359 125.727 19.526 126.602 19.125C127.477 18.6875 128.188 18.1224 128.734 17.4297C129.318 16.737 129.609 15.862 129.609 14.8047C129.609 13.9297 129.391 13.1823 128.953 12.5625C128.516 11.9062 127.951 11.3594 127.258 10.9219C126.602 10.4844 125.854 10.1745 125.016 9.99219C124.214 9.8099 123.43 9.73698 122.664 9.77344ZM152.523 36.0781C152.523 36.8073 152.487 37.4635 152.414 38.0469C152.341 38.5938 152.214 39.1406 152.031 39.6875C151.885 40.1979 151.685 40.6901 151.43 41.1641C151.211 41.6745 150.901 42.1849 150.5 42.6953L146.945 47.8359C146.836 47.9818 146.69 48.1094 146.508 48.2188C146.362 48.3646 146.18 48.474 145.961 48.5469C145.779 48.6198 145.523 48.6745 145.195 48.7109C144.904 48.7839 144.521 48.8203 144.047 48.8203C143.536 48.8203 143.117 48.7839 142.789 48.7109C142.497 48.6745 142.279 48.6016 142.133 48.4922C141.987 48.4193 141.896 48.3099 141.859 48.1641C141.859 48.0182 141.914 47.8542 142.023 47.6719L145.25 40.2891V36.0781C145.25 35.4948 145.323 35.0208 145.469 34.6562C145.615 34.2552 145.833 33.9635 146.125 33.7812C146.453 33.5625 146.836 33.4349 147.273 33.3984C147.747 33.3255 148.312 33.2891 148.969 33.2891C149.589 33.2891 150.117 33.3255 150.555 33.3984C151.029 33.4349 151.411 33.5625 151.703 33.7812C151.995 33.9635 152.195 34.2552 152.305 34.6562C152.451 35.0208 152.523 35.4948 152.523 36.0781ZM175.984 23.1719C175.984 21.6042 175.93 19.9271 175.82 18.1406C175.711 16.3177 175.438 14.6406 175 13.1094C174.599 11.5781 173.961 10.3203 173.086 9.33594C172.211 8.3151 171.008 7.80469 169.477 7.80469C167.945 7.80469 166.742 8.3151 165.867 9.33594C165.029 10.3203 164.391 11.5781 163.953 13.1094C163.552 14.6406 163.297 16.3177 163.188 18.1406C163.078 19.9271 163.023 21.6042 163.023 23.1719C163.023 24.776 163.078 26.4714 163.188 28.2578C163.297 30.0443 163.552 31.7031 163.953 33.2344C164.391 34.7656 165.029 36.0417 165.867 37.0625C166.742 38.0469 167.945 38.5391 169.477 38.5391C171.008 38.5391 172.211 38.0469 173.086 37.0625C173.961 36.0417 174.599 34.7656 175 33.2344C175.438 31.7031 175.711 30.0443 175.82 28.2578C175.93 26.4714 175.984 24.776 175.984 23.1719ZM184.516 23.2266C184.516 25.7422 184.242 28.112 183.695 30.3359C183.148 32.5599 182.273 34.5104 181.07 36.1875C179.904 37.8281 178.372 39.1406 176.477 40.125C174.581 41.1094 172.266 41.6016 169.531 41.6016C166.797 41.6016 164.464 41.1094 162.531 40.125C160.635 39.1406 159.086 37.8099 157.883 36.1328C156.716 34.4557 155.859 32.5052 155.312 30.2812C154.766 28.0573 154.492 25.6875 154.492 23.1719C154.492 20.6562 154.766 18.2865 155.312 16.0625C155.859 13.8385 156.716 11.888 157.883 10.2109C159.086 8.53385 160.635 7.20312 162.531 6.21875C164.464 5.23438 166.797 4.74219 169.531 4.74219C172.266 4.74219 174.581 5.23438 176.477 6.21875C178.372 7.20312 179.904 8.53385 181.07 10.2109C182.273 11.888 183.148 13.8385 183.695 16.0625C184.242 18.2865 184.516 20.6562 184.516 23.1719V23.2266ZM207.977 23.1719C207.977 21.6042 207.922 19.9271 207.812 18.1406C207.703 16.3177 207.43 14.6406 206.992 13.1094C206.591 11.5781 205.953 10.3203 205.078 9.33594C204.203 8.3151 203 7.80469 201.469 7.80469C199.938 7.80469 198.734 8.3151 197.859 9.33594C197.021 10.3203 196.383 11.5781 195.945 13.1094C195.544 14.6406 195.289 16.3177 195.18 18.1406C195.07 19.9271 195.016 21.6042 195.016 23.1719C195.016 24.776 195.07 26.4714 195.18 28.2578C195.289 30.0443 195.544 31.7031 195.945 33.2344C196.383 34.7656 197.021 36.0417 197.859 37.0625C198.734 38.0469 199.938 38.5391 201.469 38.5391C203 38.5391 204.203 38.0469 205.078 37.0625C205.953 36.0417 206.591 34.7656 206.992 33.2344C207.43 31.7031 207.703 30.0443 207.812 28.2578C207.922 26.4714 207.977 24.776 207.977 23.1719ZM216.508 23.2266C216.508 25.7422 216.234 28.112 215.688 30.3359C215.141 32.5599 214.266 34.5104 213.062 36.1875C211.896 37.8281 210.365 39.1406 208.469 40.125C206.573 41.1094 204.258 41.6016 201.523 41.6016C198.789 41.6016 196.456 41.1094 194.523 40.125C192.628 39.1406 191.078 37.8099 189.875 36.1328C188.708 34.4557 187.852 32.5052 187.305 30.2812C186.758 28.0573 186.484 25.6875 186.484 23.1719C186.484 20.6562 186.758 18.2865 187.305 16.0625C187.852 13.8385 188.708 11.888 189.875 10.2109C191.078 8.53385 192.628 7.20312 194.523 6.21875C196.456 5.23438 198.789 4.74219 201.523 4.74219C204.258 4.74219 206.573 5.23438 208.469 6.21875C210.365 7.20312 211.896 8.53385 213.062 10.2109C214.266 11.888 215.141 13.8385 215.688 16.0625C216.234 18.2865 216.508 20.6562 216.508 23.1719V23.2266ZM239.969 23.1719C239.969 21.6042 239.914 19.9271 239.805 18.1406C239.695 16.3177 239.422 14.6406 238.984 13.1094C238.583 11.5781 237.945 10.3203 237.07 9.33594C236.195 8.3151 234.992 7.80469 233.461 7.80469C231.93 7.80469 230.727 8.3151 229.852 9.33594C229.013 10.3203 228.375 11.5781 227.938 13.1094C227.536 14.6406 227.281 16.3177 227.172 18.1406C227.062 19.9271 227.008 21.6042 227.008 23.1719C227.008 24.776 227.062 26.4714 227.172 28.2578C227.281 30.0443 227.536 31.7031 227.938 33.2344C228.375 34.7656 229.013 36.0417 229.852 37.0625C230.727 38.0469 231.93 38.5391 233.461 38.5391C234.992 38.5391 236.195 38.0469 237.07 37.0625C237.945 36.0417 238.583 34.7656 238.984 33.2344C239.422 31.7031 239.695 30.0443 239.805 28.2578C239.914 26.4714 239.969 24.776 239.969 23.1719ZM248.5 23.2266C248.5 25.7422 248.227 28.112 247.68 30.3359C247.133 32.5599 246.258 34.5104 245.055 36.1875C243.888 37.8281 242.357 39.1406 240.461 40.125C238.565 41.1094 236.25 41.6016 233.516 41.6016C230.781 41.6016 228.448 41.1094 226.516 40.125C224.62 39.1406 223.07 37.8099 221.867 36.1328C220.701 34.4557 219.844 32.5052 219.297 30.2812C218.75 28.0573 218.477 25.6875 218.477 23.1719C218.477 20.6562 218.75 18.2865 219.297 16.0625C219.844 13.8385 220.701 11.888 221.867 10.2109C223.07 8.53385 224.62 7.20312 226.516 6.21875C228.448 5.23438 230.781 4.74219 233.516 4.74219C236.25 4.74219 238.565 5.23438 240.461 6.21875C242.357 7.20312 243.888 8.53385 245.055 10.2109C246.258 11.888 247.133 13.8385 247.68 16.0625C248.227 18.2865 248.5 20.6562 248.5 23.1719V23.2266ZM381.719 41.9297C381.719 42.6589 381.591 43.2604 381.336 43.7344C381.117 44.2448 380.661 44.5 379.969 44.5C379.24 44.5 378.747 44.2448 378.492 43.7344C378.273 43.2604 378.164 42.6589 378.164 41.9297V40.7812C376.779 40.7448 375.448 40.4896 374.172 40.0156C372.896 39.5417 371.766 38.9036 370.781 38.1016C369.797 37.263 369.013 36.2786 368.43 35.1484C367.846 34.0182 367.555 32.7604 367.555 31.375C367.555 29.8802 367.919 28.75 368.648 27.9844C369.378 27.1823 370.435 26.7812 371.82 26.7812C372.878 26.7812 373.753 27.1276 374.445 27.8203C375.138 28.4766 375.484 29.388 375.484 30.5547C375.484 30.8464 375.357 31.1927 375.102 31.5938C374.883 31.9583 374.628 32.3594 374.336 32.7969C374.081 33.2344 373.844 33.6536 373.625 34.0547C373.406 34.4557 373.297 34.8021 373.297 35.0938C373.297 35.3854 373.424 35.6771 373.68 35.9688C373.971 36.224 374.336 36.4792 374.773 36.7344C375.247 36.9531 375.776 37.1536 376.359 37.3359C376.943 37.5182 377.544 37.6458 378.164 37.7188V24.375C374.919 23.026 372.549 21.5312 371.055 19.8906C369.596 18.25 368.867 16.3359 368.867 14.1484C368.867 12.8359 369.104 11.5964 369.578 10.4297C370.052 9.22656 370.708 8.16927 371.547 7.25781C372.385 6.3099 373.37 5.52604 374.5 4.90625C375.63 4.28646 376.852 3.88542 378.164 3.70312V2.77344C378.164 1.97135 378.273 1.35156 378.492 0.914062C378.747 0.440104 379.24 0.203125 379.969 0.203125C380.661 0.203125 381.117 0.440104 381.336 0.914062C381.591 1.35156 381.719 1.97135 381.719 2.77344V3.53906C383.505 3.61198 384.854 3.84896 385.766 4.25C386.714 4.65104 387.516 5.10677 388.172 5.61719C389.01 6.34635 389.667 7.14844 390.141 8.02344C390.615 8.89844 390.852 9.84635 390.852 10.8672C390.852 12.0339 390.469 12.9635 389.703 13.6562C388.974 14.349 387.971 14.6953 386.695 14.6953C385.674 14.6953 384.872 14.4219 384.289 13.875C383.706 13.2917 383.414 12.4714 383.414 11.4141C383.414 11.2682 383.469 11.0312 383.578 10.7031C383.688 10.375 383.815 10.0469 383.961 9.71875C384.107 9.39062 384.234 9.08073 384.344 8.78906C384.453 8.46094 384.508 8.20573 384.508 8.02344C384.508 7.6224 384.289 7.27604 383.852 6.98438C383.414 6.65625 382.703 6.45573 381.719 6.38281V16.9375C383.542 17.6302 385.109 18.3594 386.422 19.125C387.771 19.8542 388.865 20.6927 389.703 21.6406C390.542 22.5521 391.161 23.5911 391.562 24.7578C391.964 25.888 392.146 27.2188 392.109 28.75C392.073 30.2448 391.781 31.6302 391.234 32.9062C390.688 34.1823 389.94 35.3307 388.992 36.3516C388.081 37.3359 387.005 38.1745 385.766 38.8672C384.526 39.5599 383.177 40.0703 381.719 40.3984V41.9297ZM386.203 31.5391C386.203 30.3359 385.802 29.2057 385 28.1484C384.198 27.0547 383.104 26.2344 381.719 25.6875V37.2812C383.104 36.7708 384.198 35.987 385 34.9297C385.802 33.8359 386.203 32.7057 386.203 31.5391ZM374.883 11.0312C374.883 11.8333 375.065 12.599 375.43 13.3281C375.794 14.0208 376.706 14.7318 378.164 15.4609V6.76562C377.107 7.16667 376.286 7.75 375.703 8.51562C375.156 9.28125 374.883 10.1198 374.883 11.0312ZM407.859 35.9688C407.859 36.9896 408.406 37.6823 409.5 38.0469C410.083 38.2292 410.576 38.4479 410.977 38.7031C411.414 38.9583 411.633 39.2318 411.633 39.5234C411.633 40.5078 411.177 41 410.266 41H397.031C396.411 41 396.047 40.8906 395.938 40.6719C395.828 40.4167 395.773 40.0339 395.773 39.5234C395.773 39.2318 396.01 38.9583 396.484 38.7031C396.958 38.4479 397.487 38.2292 398.07 38.0469C399.201 37.6823 399.766 36.9896 399.766 35.9688V10.5938C399.073 10.849 398.471 11.0312 397.961 11.1406C397.451 11.2135 396.849 11.3411 396.156 11.5234C395.719 11.6328 395.318 11.5417 394.953 11.25C394.625 10.9219 394.406 10.5391 394.297 10.1016C394.188 9.66406 394.224 9.22656 394.406 8.78906C394.589 8.3151 395.008 7.98698 395.664 7.80469C396.831 7.47656 397.87 7.16667 398.781 6.875C399.693 6.58333 400.513 6.3099 401.242 6.05469C402.008 5.76302 402.719 5.50781 403.375 5.28906C404.031 5.03385 404.706 4.8151 405.398 4.63281C405.544 4.59635 405.763 4.57812 406.055 4.57812C406.346 4.54167 406.62 4.57812 406.875 4.6875C407.13 4.76042 407.349 4.94271 407.531 5.23438C407.75 5.48958 407.859 5.89062 407.859 6.4375V35.9688ZM435.094 23.1719C435.094 21.6042 435.039 19.9271 434.93 18.1406C434.82 16.3177 434.547 14.6406 434.109 13.1094C433.708 11.5781 433.07 10.3203 432.195 9.33594C431.32 8.3151 430.117 7.80469 428.586 7.80469C427.055 7.80469 425.852 8.3151 424.977 9.33594C424.138 10.3203 423.5 11.5781 423.062 13.1094C422.661 14.6406 422.406 16.3177 422.297 18.1406C422.188 19.9271 422.133 21.6042 422.133 23.1719C422.133 24.776 422.188 26.4714 422.297 28.2578C422.406 30.0443 422.661 31.7031 423.062 33.2344C423.5 34.7656 424.138 36.0417 424.977 37.0625C425.852 38.0469 427.055 38.5391 428.586 38.5391C430.117 38.5391 431.32 38.0469 432.195 37.0625C433.07 36.0417 433.708 34.7656 434.109 33.2344C434.547 31.7031 434.82 30.0443 434.93 28.2578C435.039 26.4714 435.094 24.776 435.094 23.1719ZM443.625 23.2266C443.625 25.7422 443.352 28.112 442.805 30.3359C442.258 32.5599 441.383 34.5104 440.18 36.1875C439.013 37.8281 437.482 39.1406 435.586 40.125C433.69 41.1094 431.375 41.6016 428.641 41.6016C425.906 41.6016 423.573 41.1094 421.641 40.125C419.745 39.1406 418.195 37.8099 416.992 36.1328C415.826 34.4557 414.969 32.5052 414.422 30.2812C413.875 28.0573 413.602 25.6875 413.602 23.1719C413.602 20.6562 413.875 18.2865 414.422 16.0625C414.969 13.8385 415.826 11.888 416.992 10.2109C418.195 8.53385 419.745 7.20312 421.641 6.21875C423.573 5.23438 425.906 4.74219 428.641 4.74219C431.375 4.74219 433.69 5.23438 435.586 6.21875C437.482 7.20312 439.013 8.53385 440.18 10.2109C441.383 11.888 442.258 13.8385 442.805 16.0625C443.352 18.2865 443.625 20.6562 443.625 23.1719V23.2266ZM456.258 36.0781C456.258 36.8073 456.221 37.4635 456.148 38.0469C456.076 38.5938 455.948 39.1406 455.766 39.6875C455.62 40.1979 455.419 40.6901 455.164 41.1641C454.945 41.6745 454.635 42.1849 454.234 42.6953L450.68 47.8359C450.57 47.9818 450.424 48.1094 450.242 48.2188C450.096 48.3646 449.914 48.474 449.695 48.5469C449.513 48.6198 449.258 48.6745 448.93 48.7109C448.638 48.7839 448.255 48.8203 447.781 48.8203C447.271 48.8203 446.852 48.7839 446.523 48.7109C446.232 48.6745 446.013 48.6016 445.867 48.4922C445.721 48.4193 445.63 48.3099 445.594 48.1641C445.594 48.0182 445.648 47.8542 445.758 47.6719L448.984 40.2891V36.0781C448.984 35.4948 449.057 35.0208 449.203 34.6562C449.349 34.2552 449.568 33.9635 449.859 33.7812C450.188 33.5625 450.57 33.4349 451.008 33.3984C451.482 33.3255 452.047 33.2891 452.703 33.2891C453.323 33.2891 453.852 33.3255 454.289 33.3984C454.763 33.4349 455.146 33.5625 455.438 33.7812C455.729 33.9635 455.93 34.2552 456.039 34.6562C456.185 35.0208 456.258 35.4948 456.258 36.0781ZM479.719 23.1719C479.719 21.6042 479.664 19.9271 479.555 18.1406C479.445 16.3177 479.172 14.6406 478.734 13.1094C478.333 11.5781 477.695 10.3203 476.82 9.33594C475.945 8.3151 474.742 7.80469 473.211 7.80469C471.68 7.80469 470.477 8.3151 469.602 9.33594C468.763 10.3203 468.125 11.5781 467.688 13.1094C467.286 14.6406 467.031 16.3177 466.922 18.1406C466.812 19.9271 466.758 21.6042 466.758 23.1719C466.758 24.776 466.812 26.4714 466.922 28.2578C467.031 30.0443 467.286 31.7031 467.688 33.2344C468.125 34.7656 468.763 36.0417 469.602 37.0625C470.477 38.0469 471.68 38.5391 473.211 38.5391C474.742 38.5391 475.945 38.0469 476.82 37.0625C477.695 36.0417 478.333 34.7656 478.734 33.2344C479.172 31.7031 479.445 30.0443 479.555 28.2578C479.664 26.4714 479.719 24.776 479.719 23.1719ZM488.25 23.2266C488.25 25.7422 487.977 28.112 487.43 30.3359C486.883 32.5599 486.008 34.5104 484.805 36.1875C483.638 37.8281 482.107 39.1406 480.211 40.125C478.315 41.1094 476 41.6016 473.266 41.6016C470.531 41.6016 468.198 41.1094 466.266 40.125C464.37 39.1406 462.82 37.8099 461.617 36.1328C460.451 34.4557 459.594 32.5052 459.047 30.2812C458.5 28.0573 458.227 25.6875 458.227 23.1719C458.227 20.6562 458.5 18.2865 459.047 16.0625C459.594 13.8385 460.451 11.888 461.617 10.2109C462.82 8.53385 464.37 7.20312 466.266 6.21875C468.198 5.23438 470.531 4.74219 473.266 4.74219C476 4.74219 478.315 5.23438 480.211 6.21875C482.107 7.20312 483.638 8.53385 484.805 10.2109C486.008 11.888 486.883 13.8385 487.43 16.0625C487.977 18.2865 488.25 20.6562 488.25 23.1719V23.2266ZM511.711 23.1719C511.711 21.6042 511.656 19.9271 511.547 18.1406C511.438 16.3177 511.164 14.6406 510.727 13.1094C510.326 11.5781 509.688 10.3203 508.812 9.33594C507.938 8.3151 506.734 7.80469 505.203 7.80469C503.672 7.80469 502.469 8.3151 501.594 9.33594C500.755 10.3203 500.117 11.5781 499.68 13.1094C499.279 14.6406 499.023 16.3177 498.914 18.1406C498.805 19.9271 498.75 21.6042 498.75 23.1719C498.75 24.776 498.805 26.4714 498.914 28.2578C499.023 30.0443 499.279 31.7031 499.68 33.2344C500.117 34.7656 500.755 36.0417 501.594 37.0625C502.469 38.0469 503.672 38.5391 505.203 38.5391C506.734 38.5391 507.938 38.0469 508.812 37.0625C509.688 36.0417 510.326 34.7656 510.727 33.2344C511.164 31.7031 511.438 30.0443 511.547 28.2578C511.656 26.4714 511.711 24.776 511.711 23.1719ZM520.242 23.2266C520.242 25.7422 519.969 28.112 519.422 30.3359C518.875 32.5599 518 34.5104 516.797 36.1875C515.63 37.8281 514.099 39.1406 512.203 40.125C510.307 41.1094 507.992 41.6016 505.258 41.6016C502.523 41.6016 500.19 41.1094 498.258 40.125C496.362 39.1406 494.812 37.8099 493.609 36.1328C492.443 34.4557 491.586 32.5052 491.039 30.2812C490.492 28.0573 490.219 25.6875 490.219 23.1719C490.219 20.6562 490.492 18.2865 491.039 16.0625C491.586 13.8385 492.443 11.888 493.609 10.2109C494.812 8.53385 496.362 7.20312 498.258 6.21875C500.19 5.23438 502.523 4.74219 505.258 4.74219C507.992 4.74219 510.307 5.23438 512.203 6.21875C514.099 7.20312 515.63 8.53385 516.797 10.2109C518 11.888 518.875 13.8385 519.422 16.0625C519.969 18.2865 520.242 20.6562 520.242 23.1719V23.2266ZM543.703 23.1719C543.703 21.6042 543.648 19.9271 543.539 18.1406C543.43 16.3177 543.156 14.6406 542.719 13.1094C542.318 11.5781 541.68 10.3203 540.805 9.33594C539.93 8.3151 538.727 7.80469 537.195 7.80469C535.664 7.80469 534.461 8.3151 533.586 9.33594C532.747 10.3203 532.109 11.5781 531.672 13.1094C531.271 14.6406 531.016 16.3177 530.906 18.1406C530.797 19.9271 530.742 21.6042 530.742 23.1719C530.742 24.776 530.797 26.4714 530.906 28.2578C531.016 30.0443 531.271 31.7031 531.672 33.2344C532.109 34.7656 532.747 36.0417 533.586 37.0625C534.461 38.0469 535.664 38.5391 537.195 38.5391C538.727 38.5391 539.93 38.0469 540.805 37.0625C541.68 36.0417 542.318 34.7656 542.719 33.2344C543.156 31.7031 543.43 30.0443 543.539 28.2578C543.648 26.4714 543.703 24.776 543.703 23.1719ZM552.234 23.2266C552.234 25.7422 551.961 28.112 551.414 30.3359C550.867 32.5599 549.992 34.5104 548.789 36.1875C547.622 37.8281 546.091 39.1406 544.195 40.125C542.299 41.1094 539.984 41.6016 537.25 41.6016C534.516 41.6016 532.182 41.1094 530.25 40.125C528.354 39.1406 526.805 37.8099 525.602 36.1328C524.435 34.4557 523.578 32.5052 523.031 30.2812C522.484 28.0573 522.211 25.6875 522.211 23.1719C522.211 20.6562 522.484 18.2865 523.031 16.0625C523.578 13.8385 524.435 11.888 525.602 10.2109C526.805 8.53385 528.354 7.20312 530.25 6.21875C532.182 5.23438 534.516 4.74219 537.25 4.74219C539.984 4.74219 542.299 5.23438 544.195 6.21875C546.091 7.20312 547.622 8.53385 548.789 10.2109C549.992 11.888 550.867 13.8385 551.414 16.0625C551.961 18.2865 552.234 20.6562 552.234 23.1719V23.2266Z" fill="#951205"/>
</svg>
