<svg width="315" height="290" viewBox="0 0 315 290" fill="none" xmlns="http://www.w3.org/2000/svg">
<path d="M54.1865 18.8861C54.1865 8.9995 63.0637 1.47894 72.8159 3.10366L263.531 34.8768C271.246 36.1622 276.901 42.8375 276.901 50.6593V202.824C276.901 213.014 267.503 220.607 257.541 218.467L66.826 177.496C59.4527 175.912 54.1865 169.395 54.1865 161.853V18.8861Z" fill="#38241B" fill-opacity="0.61"/>
<path d="M91.6348 58.9198C91.6348 49.0332 100.512 41.5126 110.264 43.1373L300.979 74.9105C308.695 76.1959 314.35 82.8712 314.35 90.693V242.858C314.35 253.047 304.952 260.641 294.989 258.501L104.274 217.53C96.9009 215.946 91.6348 209.429 91.6348 201.887V58.9198Z" fill="#38241B" fill-opacity="0.61"/>
<path d="M0.97168 86.2599C0.97168 76.3733 9.84885 68.8527 19.601 70.4774L210.316 102.251C218.031 103.536 223.687 110.211 223.687 118.033V270.198C223.687 280.387 214.288 287.981 204.326 285.841L13.6111 244.87C6.23783 243.286 0.97168 236.769 0.97168 229.227V86.2599Z" fill="#38241B" fill-opacity="0.61"/>
<path d="M122.329 240.181V243.301H118.313V240.181H122.329ZM123.433 244.373V239.109H117.225V245.509H118.313V244.373H123.433ZM126.777 235.845H119.641C120.041 235.077 120.457 234.165 120.809 233.317L119.353 233.061C119.145 233.877 118.729 234.981 118.329 235.845H113.961V247.701H115.129V236.997H125.593V246.117C125.593 246.421 125.497 246.501 125.209 246.517C124.873 246.533 123.769 246.533 122.617 246.485C122.793 246.805 122.985 247.365 123.049 247.701C124.489 247.701 125.465 247.685 126.041 247.493C126.601 247.301 126.777 246.901 126.777 246.117V235.845ZM143.401 235.461V234.277H129.273V235.461H135.385V247.685H136.649V239.269C138.473 240.245 140.617 241.557 141.705 242.453L142.537 241.381C141.273 240.421 138.761 238.981 136.857 238.069L136.649 238.309V235.461H143.401ZM154.953 236.629C154.953 237.525 155.161 237.893 156.169 237.893H157.993C158.393 237.893 158.809 237.893 159.001 237.829C158.969 237.573 158.953 237.253 158.937 236.997C158.713 237.045 158.217 237.061 157.977 237.061H156.361C156.057 237.061 156.025 236.965 156.025 236.645V235.493H159.433V234.517H154.569C154.361 234.117 154.057 233.541 153.801 233.125L152.761 233.381C152.937 233.733 153.145 234.133 153.321 234.517H149.001V235.493H154.953V236.629ZM152.009 235.877C151.769 236.901 150.985 237.269 148.553 237.461C148.745 237.653 149.017 238.069 149.081 238.309C151.833 237.989 152.793 237.365 153.049 235.877H152.009ZM149.001 234.997C148.409 234.533 147.257 233.829 146.425 233.365L145.849 234.245C146.681 234.741 147.833 235.493 148.409 235.989L149.001 234.997ZM148.185 239.189C147.577 238.725 146.393 238.101 145.513 237.733L144.985 238.661C145.881 239.061 147.033 239.717 147.609 240.181L148.185 239.189ZM147.769 241.701C147.033 243.445 146.057 245.413 145.385 246.597L146.281 247.365C147.017 245.941 147.897 244.053 148.553 242.437L147.769 241.701ZM151.177 239.189H156.633V240.901H151.177V239.189ZM158.361 242.197C157.849 242.789 157.001 243.621 156.281 244.197C155.689 243.493 155.225 242.693 154.889 241.829H157.625V238.261H150.201V241.829H152.585C151.513 242.885 149.849 243.765 148.057 244.357C148.281 244.549 148.649 244.933 148.809 245.173C149.481 244.933 150.121 244.645 150.729 244.341V245.829C150.729 246.421 150.537 246.629 150.345 246.741C150.521 246.933 150.729 247.413 150.793 247.669C151.081 247.477 151.561 247.317 154.905 246.613C154.889 246.405 154.889 245.989 154.905 245.685L151.769 246.229V243.749C152.569 243.221 153.273 242.629 153.833 241.957C154.841 244.549 156.553 246.565 159.001 247.557C159.161 247.269 159.497 246.901 159.753 246.677C158.649 246.277 157.673 245.653 156.873 244.869C157.641 244.293 158.569 243.493 159.289 242.773L158.361 242.197ZM162.505 241.669V240.501H164.521V241.669H162.505ZM162.505 238.565H164.521V239.717H162.505V238.565ZM167.689 238.565V239.717H165.593V238.565H167.689ZM167.689 241.669H165.593V240.501H167.689V241.669ZM171.897 236.805C171.929 235.685 171.929 234.501 171.929 233.301H170.809C170.809 234.517 170.809 235.685 170.777 236.805H168.873V237.925H170.745C170.601 240.917 170.169 243.493 168.793 245.381V245.317C167.721 245.445 166.633 245.557 165.593 245.653V244.389H168.729V243.477H165.593V242.501H168.697V237.749H165.593V236.741H168.985V235.813H165.593V234.645C166.761 234.517 167.849 234.373 168.713 234.181L168.121 233.269C166.473 233.637 163.593 233.925 161.225 234.053C161.353 234.293 161.465 234.677 161.513 234.933C162.457 234.901 163.497 234.837 164.521 234.757V235.813H161.065V236.741H164.521V237.749H161.529V242.501H164.521V243.477H161.497V244.389H164.521V245.765C163.209 245.893 162.009 246.005 161.049 246.085L161.225 247.125C163.017 246.933 165.497 246.661 167.913 246.373C167.705 246.565 167.481 246.757 167.225 246.933C167.513 247.125 167.929 247.525 168.105 247.781C170.921 245.669 171.657 242.181 171.849 237.925H174.137C173.977 243.733 173.785 245.845 173.417 246.309C173.257 246.517 173.113 246.565 172.841 246.565C172.537 246.565 171.833 246.549 171.065 246.485C171.241 246.789 171.369 247.285 171.401 247.605C172.137 247.653 172.889 247.669 173.337 247.605C173.817 247.557 174.137 247.429 174.409 247.013C174.953 246.341 175.097 244.117 175.273 237.413C175.273 237.253 175.289 236.805 175.289 236.805H171.897Z" fill="white"/>
<rect x="130.082" y="181.64" width="27.5639" height="40.963" rx="11" stroke="white" stroke-width="2"/>
<line x1="144.379" y1="176.281" x2="144.379" y2="186.951" stroke="white" stroke-width="3" stroke-linecap="round"/>
</svg>
