<svg width="182" height="137" viewBox="0 0 182 137" fill="none" xmlns="http://www.w3.org/2000/svg">
<rect width="182" height="137" fill="#F6F7FB"/>
<path d="M68.9837 46.5583L58.3485 63.5747H79.6189L68.9837 46.5583Z" fill="#E4E4E4"/>
<rect x="84.6189" y="46.5583" width="17.0163" height="17.0163" fill="#D2D2D2"/>
<circle cx="115.143" cy="55.0665" r="8.50816" fill="#E4E4E4"/>
<path d="M67.4422 86.5747H65.2449L60.9676 79.5581V86.5747H58.7703V75.9106H60.9676L65.2523 82.9419V75.9106H67.4422V86.5747ZM68.8924 82.5391C68.8924 81.7529 69.0438 81.0522 69.3465 80.437C69.6492 79.8218 70.0838 79.3457 70.6502 79.0088C71.2215 78.6719 71.8831 78.5034 72.6351 78.5034C73.7044 78.5034 74.576 78.8306 75.2498 79.4849C75.9285 80.1392 76.3069 81.0278 76.3851 82.1509L76.3997 82.6929C76.3997 83.9087 76.0604 84.8853 75.3817 85.6226C74.7029 86.355 73.7923 86.7212 72.6497 86.7212C71.5071 86.7212 70.5941 86.355 69.9105 85.6226C69.2318 84.8901 68.8924 83.894 68.8924 82.6343V82.5391ZM71.0091 82.6929C71.0091 83.4448 71.1507 84.021 71.4339 84.4214C71.7171 84.8169 72.1224 85.0146 72.6497 85.0146C73.1624 85.0146 73.5628 84.8193 73.8509 84.4287C74.139 84.0332 74.283 83.4033 74.283 82.5391C74.283 81.8018 74.139 81.2305 73.8509 80.8252C73.5628 80.4199 73.1575 80.2173 72.6351 80.2173C72.1175 80.2173 71.7171 80.4199 71.4339 80.8252C71.1507 81.2256 71.0091 81.8481 71.0091 82.6929ZM83.9144 86.5747H81.7171V75.9106H83.9144V86.5747ZM87.8035 78.6499L87.8694 79.5361C88.431 78.8477 89.1902 78.5034 90.1473 78.5034C91.1678 78.5034 91.8685 78.9062 92.2493 79.7119C92.806 78.9062 93.5994 78.5034 94.6297 78.5034C95.4891 78.5034 96.1287 78.7549 96.5486 79.2578C96.9686 79.7559 97.1785 80.5078 97.1785 81.5137V86.5747H95.0545V81.521C95.0545 81.0718 94.9666 80.7446 94.7908 80.5396C94.6151 80.3296 94.305 80.2246 93.8607 80.2246C93.2259 80.2246 92.7864 80.5273 92.5423 81.1328L92.5496 86.5747H90.4329V81.5283C90.4329 81.0693 90.3426 80.7373 90.1619 80.5322C89.9813 80.3271 89.6736 80.2246 89.2391 80.2246C88.6385 80.2246 88.2039 80.4736 87.9354 80.9717V86.5747H85.8187V78.6499H87.8035ZM103.404 86.5747C103.306 86.3843 103.236 86.1475 103.192 85.8643C102.679 86.4355 102.013 86.7212 101.192 86.7212C100.416 86.7212 99.7713 86.4966 99.2586 86.0474C98.7508 85.5981 98.4969 85.0317 98.4969 84.3481C98.4969 83.5083 98.8069 82.8638 99.4271 82.4146C100.052 81.9653 100.953 81.7383 102.13 81.7334H103.104V81.2793C103.104 80.9131 103.009 80.6201 102.818 80.4004C102.633 80.1807 102.337 80.0708 101.932 80.0708C101.576 80.0708 101.295 80.1562 101.09 80.3271C100.889 80.498 100.789 80.7324 100.789 81.0303H98.6727C98.6727 80.5713 98.8143 80.1465 99.0975 79.7559C99.3807 79.3652 99.7811 79.0601 100.299 78.8403C100.816 78.6157 101.397 78.5034 102.042 78.5034C103.018 78.5034 103.792 78.75 104.364 79.2432C104.94 79.7314 105.228 80.4199 105.228 81.3086V84.7437C105.233 85.4956 105.338 86.0645 105.543 86.4502V86.5747H103.404ZM101.654 85.1025C101.966 85.1025 102.254 85.0342 102.518 84.8975C102.782 84.7559 102.977 84.5679 103.104 84.3335V82.9712H102.313C101.253 82.9712 100.689 83.3374 100.621 84.0698L100.614 84.1943C100.614 84.458 100.706 84.6753 100.892 84.8462C101.077 85.0171 101.331 85.1025 101.654 85.1025ZM106.546 82.5537C106.546 81.3379 106.834 80.3589 107.41 79.6167C107.992 78.8745 108.773 78.5034 109.754 78.5034C110.623 78.5034 111.3 78.8013 111.783 79.397L111.871 78.6499H113.79V86.311C113.79 87.0044 113.631 87.6074 113.314 88.1201C113.001 88.6328 112.559 89.0234 111.988 89.292C111.417 89.5605 110.748 89.6948 109.981 89.6948C109.4 89.6948 108.834 89.5776 108.282 89.3433C107.73 89.1138 107.313 88.8159 107.03 88.4497L107.967 87.1606C108.494 87.7515 109.134 88.0469 109.886 88.0469C110.448 88.0469 110.885 87.8955 111.197 87.5928C111.51 87.2949 111.666 86.8701 111.666 86.3184V85.8936C111.178 86.4453 110.535 86.7212 109.74 86.7212C108.787 86.7212 108.016 86.3501 107.425 85.6079C106.839 84.8608 106.546 83.8721 106.546 82.6416V82.5537ZM108.663 82.7075C108.663 83.4253 108.807 83.9893 109.095 84.3994C109.383 84.8047 109.779 85.0073 110.282 85.0073C110.926 85.0073 111.388 84.7656 111.666 84.2822V80.9497C111.383 80.4663 110.926 80.2246 110.296 80.2246C109.788 80.2246 109.388 80.4321 109.095 80.8472C108.807 81.2622 108.663 81.8823 108.663 82.7075ZM119.071 86.7212C117.909 86.7212 116.961 86.3647 116.229 85.6519C115.501 84.939 115.138 83.9893 115.138 82.8027V82.5977C115.138 81.8018 115.291 81.0913 115.599 80.4663C115.907 79.8364 116.341 79.353 116.903 79.0161C117.469 78.6743 118.114 78.5034 118.836 78.5034C119.92 78.5034 120.772 78.8452 121.392 79.5288C122.017 80.2124 122.33 81.1816 122.33 82.4365V83.3008H117.284C117.352 83.8184 117.557 84.2334 117.899 84.5459C118.245 84.8584 118.682 85.0146 119.21 85.0146C120.025 85.0146 120.662 84.7192 121.121 84.1284L122.161 85.293C121.844 85.7422 121.414 86.0938 120.872 86.3477C120.33 86.5967 119.73 86.7212 119.071 86.7212ZM118.829 80.2173C118.409 80.2173 118.067 80.3589 117.804 80.6421C117.545 80.9253 117.379 81.3306 117.305 81.8579H120.25V81.6895C120.24 81.2207 120.113 80.8594 119.869 80.6055C119.625 80.3467 119.278 80.2173 118.829 80.2173Z" fill="#E4E4E4"/>
</svg>
