<svg width="279" height="14" viewBox="0 0 279 14" fill="none" xmlns="http://www.w3.org/2000/svg">
<path d="M9.36 8.206V11.3H2.598V8.206H9.36ZM1.548 13.064H2.598V12.308H9.36V13.036H10.452V7.212H1.548V13.064ZM7.372 2.41C8.044 3.012 8.758 3.74 9.402 4.468L2.262 4.818C3.494 3.656 4.74 2.214 5.846 0.701999L4.824 0.24C3.732 1.976 2.108 3.74 1.604 4.188C1.142 4.65 0.778 4.958 0.47 5.014C0.582 5.294 0.764 5.812 0.806 6.036C1.352 5.84 2.164 5.812 10.158 5.364C10.508 5.798 10.802 6.204 11.012 6.568L11.894 5.938C11.166 4.776 9.556 3.068 8.198 1.878L7.372 2.41ZM18.558 10.026V0.548H17.494V3.824H13.952V4.846H17.494V10.432C15.982 11.02 14.54 11.552 13.532 11.902L14.008 12.924C15.618 12.294 17.788 11.384 19.79 10.516L19.608 9.62L18.558 10.026ZM22.604 11.496C22.072 11.496 21.974 11.37 21.974 10.67V4.832H25.88V3.81H21.974V0.562H20.924V10.656C20.924 12.112 21.274 12.518 22.478 12.518H24.354C25.698 12.518 25.95 11.524 26.062 8.654C25.768 8.584 25.348 8.374 25.068 8.15C24.984 10.824 24.9 11.496 24.27 11.496H22.604ZM35.078 8.71L36.03 7.912C35.162 6.876 33.888 5.616 32.894 4.804L31.984 5.602C32.978 6.414 34.168 7.604 35.078 8.71ZM51.36 8.206V11.3H44.598V8.206H51.36ZM43.548 13.064H44.598V12.308H51.36V13.036H52.452V7.212H43.548V13.064ZM49.372 2.41C50.044 3.012 50.758 3.74 51.402 4.468L44.262 4.818C45.494 3.656 46.74 2.214 47.846 0.701999L46.824 0.24C45.732 1.976 44.108 3.74 43.604 4.188C43.142 4.65 42.778 4.958 42.47 5.014C42.582 5.294 42.764 5.812 42.806 6.036C43.352 5.84 44.164 5.812 52.158 5.364C52.508 5.798 52.802 6.204 53.012 6.568L53.894 5.938C53.166 4.776 51.556 3.068 50.198 1.878L49.372 2.41ZM62.504 7.506V3.796H66.522V7.506H62.504ZM57.422 7.506V3.796H61.426V7.506H57.422ZM62.504 2.774V0.282H61.426V2.774H56.4V9.396H57.422V8.528H61.426V13.064H62.504V8.528H66.522V9.326H67.586V2.774H62.504ZM77.078 8.71L78.03 7.912C77.162 6.876 75.888 5.616 74.894 4.804L73.984 5.602C74.978 6.414 76.168 7.604 77.078 8.71ZM93.36 8.206V11.3H86.598V8.206H93.36ZM85.548 13.064H86.598V12.308H93.36V13.036H94.452V7.212H85.548V13.064ZM91.372 2.41C92.044 3.012 92.758 3.74 93.402 4.468L86.262 4.818C87.494 3.656 88.74 2.214 89.846 0.701999L88.824 0.24C87.732 1.976 86.108 3.74 85.604 4.188C85.142 4.65 84.778 4.958 84.47 5.014C84.582 5.294 84.764 5.812 84.806 6.036C85.352 5.84 86.164 5.812 94.158 5.364C94.508 5.798 94.802 6.204 95.012 6.568L95.894 5.938C95.166 4.776 93.556 3.068 92.198 1.878L91.372 2.41ZM101.452 5.56C101.802 6.078 102.166 6.778 102.306 7.254L103.16 6.946C103.02 6.484 102.642 5.812 102.278 5.308L101.452 5.56ZM107.584 10.39V9.522H104.462V8.108H107.346V7.254H105.652C105.974 6.764 106.296 6.134 106.604 5.546L105.708 5.294C105.484 5.868 105.078 6.694 104.742 7.254H100.752V8.108H103.468V9.522H100.458V10.39H103.468V12.798H104.462V10.39H107.584ZM110.132 2.662V1.682H104.56V0.296H103.426V1.682H97.896V2.662H103.426V4.146H98.652V13.064H99.674V5.112H108.34V11.86C108.34 12.084 108.27 12.154 108.018 12.168C107.78 12.182 106.926 12.182 106.044 12.14C106.184 12.406 106.352 12.798 106.422 13.078C107.542 13.078 108.34 13.078 108.788 12.91C109.236 12.756 109.39 12.476 109.39 11.86V4.146H104.56V2.662H110.132ZM119.078 8.71L120.03 7.912C119.162 6.876 117.888 5.616 116.894 4.804L115.984 5.602C116.978 6.414 118.168 7.604 119.078 8.71ZM136.382 1.864V3.292H127.982V1.864H136.382ZM137.46 4.202V0.954H126.946V5.56C126.946 7.688 126.834 10.53 125.504 12.532C125.756 12.644 126.204 12.938 126.4 13.106C127.786 11.006 127.982 7.842 127.982 5.56V4.202H137.46ZM131.678 5.672C131.496 5.336 131.132 4.762 130.838 4.356L129.9 4.65C130.194 5.084 130.53 5.672 130.712 6.036L131.678 5.672ZM131.734 8.92C131.748 8.738 131.748 8.57 131.748 8.388V7.002H134.52V8.92H131.734ZM138.216 8.92H135.542V7.002H137.81V6.12H135.416C135.752 5.658 136.102 5.126 136.41 4.622L135.318 4.314C135.122 4.832 134.758 5.56 134.408 6.12H128.556V7.002H130.74V8.374C130.74 8.556 130.74 8.738 130.726 8.92H128.192V9.83H130.572C130.306 10.754 129.648 11.636 128.052 12.336C128.276 12.504 128.598 12.882 128.738 13.106C130.67 12.238 131.384 11.062 131.622 9.83H134.52V13.092H135.542V9.83H138.216V8.92ZM142.192 6.694H145.44V8.052H142.192V6.694ZM142.192 4.594H145.44V5.924H142.192V4.594ZM149.934 4.594V5.924H146.49V4.594H149.934ZM149.934 8.052H146.49V6.694H149.934V8.052ZM150.984 8.864V3.768H146.49V2.592H152.104V1.612H146.49V0.296H145.44V1.612H139.966V2.592H145.44V3.768H141.184V8.864H144.572C143.326 10.166 141.38 11.37 139.616 11.986C139.868 12.196 140.176 12.588 140.344 12.854C142.122 12.126 144.11 10.796 145.44 9.298V13.064H146.49V9.256C147.834 10.768 149.878 12.154 151.698 12.882C151.852 12.588 152.174 12.196 152.426 11.986C150.634 11.384 148.646 10.18 147.372 8.864H150.984ZM161.078 8.71L162.03 7.912C161.162 6.876 159.888 5.616 158.894 4.804L157.984 5.602C158.978 6.414 160.168 7.604 161.078 8.71ZM169.226 2.872H178.76V4.86H179.796V1.92H174.378L174.826 1.794C174.714 1.36 174.406 0.701999 174.084 0.211999L173.09 0.463999C173.342 0.911999 173.622 1.5 173.748 1.92H168.204V4.86H169.226V2.872ZM171.48 10.082H176.408V11.72H171.48V10.082ZM176.408 5.238V6.75H171.48V5.238H176.408ZM176.408 9.2H171.48V7.632H176.408V9.2ZM177.444 11.72V4.314H170.472V11.72H167.826V12.686H180.146V11.72H177.444ZM184.696 2.676H185.718V1.962H187.65V1.08H185.718V0.282H184.696V1.08H181.896V1.962H184.696V2.676ZM186.334 3.614V4.244H183.492V3.614H186.334ZM183.492 5.462V4.832H186.334V5.462H183.492ZM187.272 6.134V2.942H182.512V13.05H183.492V6.134H187.272ZM189.134 9.816C189.358 9.592 189.624 9.284 189.876 8.934L189.358 8.696C189.218 8.934 188.938 9.354 188.714 9.62L189.134 9.816ZM186.096 8.878C186.306 9.144 186.572 9.536 186.698 9.774L187.16 9.564C187.034 9.326 186.768 8.948 186.572 8.696L186.096 8.878ZM185.662 8.556H187.594V9.9H185.662V8.556ZM190.338 9.9H188.308V8.556H190.338V9.9ZM191.15 11.818C190.828 11.608 189.666 10.922 188.924 10.516H191.094V7.954H188.364V7.394H191.514V6.764H188.364V6.008H187.524V6.764H184.486V7.394H187.524V7.954H184.92V10.516H186.936C186.166 11.076 185.046 11.594 184.052 11.832C184.248 11.986 184.5 12.28 184.626 12.476C185.62 12.154 186.74 11.538 187.524 10.88V12.812H188.364V10.838C189.092 11.286 190.296 12.098 190.716 12.434L191.15 11.818ZM189.554 5.462V4.832H192.55V5.462H189.554ZM192.55 3.614V4.244H189.554V3.614H192.55ZM193.544 2.942H188.602V6.134H192.55V11.86C192.55 12.028 192.494 12.084 192.34 12.084C192.172 12.098 191.654 12.098 191.094 12.084C191.22 12.322 191.374 12.7 191.416 12.952C192.214 12.952 192.746 12.952 193.082 12.784C193.418 12.63 193.544 12.378 193.544 11.86V2.942ZM191.36 1.08V0.282H190.338V1.08H188.266V1.962H190.338V2.69H191.36V1.962H194.174V1.08H191.36ZM197.338 5.756C196.82 5.756 196.414 6.162 196.414 6.68C196.414 7.198 196.82 7.604 197.338 7.604C197.856 7.604 198.262 7.198 198.262 6.68C198.262 6.162 197.856 5.756 197.338 5.756ZM202 5.756C201.482 5.756 201.076 6.162 201.076 6.68C201.076 7.198 201.482 7.604 202 7.604C202.518 7.604 202.924 7.198 202.924 6.68C202.924 6.162 202.518 5.756 202 5.756ZM206.662 5.756C206.144 5.756 205.738 6.162 205.738 6.68C205.738 7.198 206.144 7.604 206.662 7.604C207.18 7.604 207.586 7.198 207.586 6.68C207.586 6.162 207.18 5.756 206.662 5.756ZM211.338 5.756C210.82 5.756 210.414 6.162 210.414 6.68C210.414 7.198 210.82 7.604 211.338 7.604C211.856 7.604 212.262 7.198 212.262 6.68C212.262 6.162 211.856 5.756 211.338 5.756ZM216 5.756C215.482 5.756 215.076 6.162 215.076 6.68C215.076 7.198 215.482 7.604 216 7.604C216.518 7.604 216.924 7.198 216.924 6.68C216.924 6.162 216.518 5.756 216 5.756ZM220.662 5.756C220.144 5.756 219.738 6.162 219.738 6.68C219.738 7.198 220.144 7.604 220.662 7.604C221.18 7.604 221.586 7.198 221.586 6.68C221.586 6.162 221.18 5.756 220.662 5.756ZM232.226 4.734H234.704C234.368 5.112 233.962 5.518 233.584 5.784V6.75H231.68V7.604H233.584V10.068C233.584 10.208 233.542 10.25 233.374 10.25C233.206 10.264 232.688 10.264 232.1 10.25C232.24 10.502 232.38 10.866 232.422 11.132C233.206 11.132 233.724 11.118 234.046 10.964C234.41 10.81 234.494 10.558 234.494 10.082V7.604H236.37V6.75H234.494V6.036C235.082 5.546 235.712 4.902 236.174 4.3L235.586 3.866L235.418 3.922H232.282C232.492 3.572 232.688 3.166 232.884 2.746H236.37V1.864H233.22C233.388 1.416 233.528 0.926 233.654 0.463999L232.758 0.24C232.45 1.626 231.876 3.012 231.148 3.922C231.372 4.048 231.722 4.328 231.904 4.482C232.016 4.342 232.128 4.188 232.226 4.02V4.734ZM228.25 4.594C228.25 6.274 228.096 8.598 226.794 10.348C227.004 10.474 227.312 10.74 227.466 10.922C228.684 9.326 229.02 7.254 229.104 5.518H230.462C230.35 8.696 230.196 9.858 229.972 10.138C229.888 10.292 229.776 10.32 229.622 10.306C229.454 10.306 229.09 10.306 228.684 10.264C228.796 10.502 228.88 10.866 228.908 11.146C229.342 11.16 229.762 11.16 230.028 11.132C230.336 11.09 230.56 10.992 230.756 10.726C231.092 10.292 231.232 8.976 231.386 5.084V4.65H229.118V4.608V3.068H231.652V2.172H230.084L230.196 2.144C230.056 1.654 229.734 0.884 229.454 0.296L228.544 0.478C228.754 1.01 229.034 1.682 229.188 2.172H227.046V3.068H228.25V4.594ZM226.542 2.466C226.22 1.892 225.534 0.996 224.946 0.309999L224.162 0.715999C224.708 1.416 225.394 2.382 225.716 2.984L226.542 2.466ZM226.584 6.932L226.416 6.96H225.03C225.786 6.022 226.78 4.552 227.326 3.74L226.626 3.432L226.43 3.516H223.7V4.37H225.856C225.282 5.224 224.498 6.33 224.204 6.652C223.966 6.904 223.756 7.002 223.546 7.058C223.658 7.268 223.854 7.758 223.924 8.01C224.036 7.898 224.4 7.814 224.75 7.814H226.01C225.59 9.956 224.68 11.51 223.462 12.378C223.672 12.518 224.008 12.882 224.148 13.092C224.82 12.574 225.422 11.86 225.898 10.95C226.99 12.56 228.74 12.84 231.624 12.84C233.15 12.84 234.9 12.812 236.216 12.728C236.258 12.448 236.398 11.986 236.552 11.762C235.138 11.888 233.108 11.944 231.638 11.944C228.95 11.944 227.186 11.734 226.29 10.11C226.626 9.256 226.892 8.262 227.06 7.128L226.584 6.932ZM248.76 3.292V4.398H243.076V4.16V3.292H248.76ZM244.994 6.666V8.164H243.79V6.666H244.994ZM249.04 8.164H247.752V6.666H249.04V8.164ZM245.75 8.164V6.666H246.996V8.164H245.75ZM242.964 11.3H243.79V8.92H244.994V11.048H245.75V8.92H246.996V11.048H247.752V8.92H249.04V10.32C249.04 10.432 249.012 10.46 248.914 10.46H248.158C248.27 10.684 248.382 10.992 248.41 11.216C248.942 11.216 249.306 11.216 249.558 11.076C249.824 10.936 249.88 10.726 249.88 10.32V5.882H243.02C243.034 5.63 243.048 5.392 243.062 5.14H249.684V2.55H243.076V1.906C245.33 1.78 247.878 1.542 249.572 1.15L248.942 0.436C247.374 0.814 244.532 1.066 242.18 1.192V4.146C242.18 5.882 242.054 8.29 240.948 10.054C241.158 10.152 241.536 10.432 241.704 10.6C242.46 9.41 242.81 7.856 242.964 6.414V11.3ZM240.654 2.466C240.304 1.878 239.604 0.996 239.002 0.309999L238.204 0.744C238.778 1.444 239.506 2.424 239.842 3.012L240.654 2.466ZM240.5 6.932L240.318 6.96H239.002C239.73 6.022 240.696 4.566 241.256 3.74L240.57 3.446L240.388 3.516H237.7V4.37H239.786C239.226 5.224 238.484 6.344 238.176 6.666C237.938 6.918 237.728 7.016 237.518 7.072C237.63 7.282 237.826 7.758 237.896 8.01C237.994 7.898 238.372 7.814 238.694 7.814H239.912C239.534 9.956 238.666 11.496 237.504 12.378C237.728 12.504 238.05 12.882 238.204 13.078C238.848 12.56 239.408 11.846 239.87 10.936C240.962 12.56 242.712 12.84 245.582 12.84C247.108 12.84 248.872 12.812 250.174 12.728C250.23 12.448 250.342 11.986 250.51 11.762C249.082 11.888 247.052 11.944 245.582 11.944C242.908 11.944 241.13 11.706 240.248 10.082C240.57 9.228 240.808 8.234 240.962 7.114L240.5 6.932ZM261.36 8.206V11.3H254.598V8.206H261.36ZM253.548 13.064H254.598V12.308H261.36V13.036H262.452V7.212H253.548V13.064ZM259.372 2.41C260.044 3.012 260.758 3.74 261.402 4.468L254.262 4.818C255.494 3.656 256.74 2.214 257.846 0.701999L256.824 0.24C255.732 1.976 254.108 3.74 253.604 4.188C253.142 4.65 252.778 4.958 252.47 5.014C252.582 5.294 252.764 5.812 252.806 6.036C253.352 5.84 254.164 5.812 262.158 5.364C262.508 5.798 262.802 6.204 263.012 6.568L263.894 5.938C263.166 4.776 261.556 3.068 260.198 1.878L259.372 2.41ZM278.3 4.72C278.188 4.328 277.88 3.698 277.558 3.25L277.068 3.432C277.152 3.572 277.236 3.726 277.32 3.88L276.102 4.034C276.718 3.39 277.334 2.606 277.824 1.808L277.18 1.528C277.068 1.738 276.942 1.948 276.802 2.158L275.878 2.214C276.228 1.752 276.578 1.164 276.816 0.589999L276.158 0.352C275.934 1.094 275.43 1.878 275.276 2.074C275.136 2.27 275.038 2.41 274.87 2.424C274.954 2.55 275.066 2.844 275.108 2.97C275.248 2.9 275.486 2.844 276.396 2.774C276.032 3.278 275.696 3.67 275.542 3.824C275.29 4.09 275.108 4.258 274.884 4.286C274.968 4.426 275.094 4.72 275.122 4.832C275.318 4.762 275.654 4.678 277.558 4.398C277.642 4.608 277.726 4.776 277.768 4.93L278.3 4.72ZM277.012 7.072C276.998 6.61 276.858 5.854 276.662 5.252L276.102 5.392C276.298 5.994 276.438 6.778 276.452 7.254L277.012 7.072ZM275.234 5.252C275.122 5.854 274.968 6.484 274.688 6.96C274.842 7.044 275.122 7.226 275.234 7.324C275.486 6.806 275.71 6.064 275.836 5.392L275.234 5.252ZM274.926 1.682H273.204L273.82 1.5C273.694 1.206 273.442 0.715999 273.218 0.393999L272.504 0.575999C272.7 0.897999 272.952 1.346 273.05 1.682H271.566V2.326H274.926V1.682ZM271.986 4.426H274.562V3.852H271.986V4.426ZM274.562 2.816H271.986V3.404H274.562V2.816ZM272.63 5.504H273.862V6.428H272.63V5.504ZM271.944 7.002H274.576V4.944H271.944V7.002ZM271.762 4.65C271.664 4.3 271.384 3.726 271.09 3.278L270.572 3.46C270.656 3.614 270.754 3.768 270.838 3.922L269.606 4.076C270.236 3.432 270.838 2.634 271.328 1.836L270.698 1.556C270.586 1.78 270.46 1.976 270.334 2.186L269.396 2.256C269.746 1.794 270.096 1.192 270.334 0.618L269.676 0.379999C269.452 1.122 268.948 1.92 268.808 2.102C268.668 2.312 268.556 2.438 268.388 2.466C268.472 2.592 268.584 2.872 268.626 2.998C268.766 2.942 269.004 2.886 269.914 2.802C269.564 3.306 269.2 3.712 269.046 3.852C268.808 4.132 268.612 4.314 268.402 4.342C268.486 4.482 268.612 4.762 268.64 4.888C268.836 4.79 269.158 4.706 271.062 4.454C271.132 4.608 271.188 4.776 271.23 4.902L271.762 4.65ZM270.684 5.224C270.908 5.742 271.104 6.386 271.174 6.792L271.706 6.554C271.65 6.162 271.44 5.546 271.202 5.056L270.684 5.224ZM270.53 6.946C270.516 6.512 270.376 5.826 270.194 5.28L269.648 5.42C269.816 5.966 269.942 6.694 269.956 7.142L270.53 6.946ZM268.43 1.962C268.038 1.5 267.17 0.87 266.47 0.478L265.868 1.164C266.568 1.598 267.422 2.256 267.8 2.718L268.43 1.962ZM268.192 5.56C267.758 5.126 266.876 4.524 266.148 4.174L265.56 4.874C266.274 5.266 267.156 5.896 267.562 6.344L268.192 5.56ZM266.764 12.896C267.31 11.622 267.926 9.914 268.388 8.458L267.576 7.912C267.058 9.48 266.33 11.286 265.826 12.364L266.764 12.896ZM268.752 5.308C268.64 5.924 268.486 6.54 268.22 7.044C268.36 7.128 268.626 7.282 268.738 7.38C269.004 6.89 269.214 6.134 269.354 5.448L268.752 5.308ZM270.446 10.278C270.516 10.054 270.586 9.816 270.642 9.578H277.124V7.506H269.34V8.178H276.158V8.906H269.844C269.676 9.592 269.466 10.404 269.242 10.992H276.606C276.424 11.678 276.242 12.042 276.004 12.196C275.864 12.294 275.724 12.308 275.416 12.308C275.066 12.308 274.156 12.294 273.26 12.21C273.414 12.434 273.526 12.77 273.554 13.008C274.436 13.064 275.276 13.078 275.696 13.064C276.158 13.064 276.452 13.008 276.746 12.798C277.124 12.518 277.404 11.902 277.67 10.698C277.712 10.572 277.726 10.278 277.726 10.278H270.446ZM277.166 5.196C277.432 5.784 277.67 6.526 277.74 7.03L278.286 6.778C278.202 6.33 277.964 5.588 277.67 5.028L277.166 5.196Z" fill="white"/>
</svg>
