<svg width="7" height="7" viewBox="0 0 7 7" fill="none" xmlns="http://www.w3.org/2000/svg">
<path d="M6.97185 3.76516C5.85311 3.89774 4.89651 4.27891 4.26418 5.30641C4.02097 5.72072 3.84262 6.1516 3.85884 6.64878C3.85884 6.79793 3.92369 7.02995 3.64806 6.9968C3.50214 6.98023 3.55078 6.74821 3.43728 6.66535C3.32379 5.80358 3.01573 5.04124 2.33476 4.44463C1.67 3.84802 0.778253 3.99718 0 3.74859C0.081068 3.41714 0.308058 3.45028 0.486408 3.40056C0.924175 3.28456 1.32951 3.11883 1.73485 2.93653C2.85359 2.43936 3.48592 1.57759 3.59942 0.334648C3.71291 0.251786 3.68049 0.0197705 3.81019 0.00319802C4.0534 -0.029947 4.02097 0.202068 4.02097 0.351221C3.98854 0.765534 4.08583 1.16327 4.28039 1.54444C4.78301 2.63823 5.62612 3.25141 6.7935 3.43371C6.89078 3.51657 7.06913 3.56629 6.97185 3.76516Z" fill="#F2CB0C"/>
</svg>
