<svg width="612" height="459" viewBox="0 0 612 459" fill="none" xmlns="http://www.w3.org/2000/svg">
<rect width="612" height="459" fill="#F6F7FB"/>
<path d="M260.5 185L235 226H286L260.5 185Z" fill="#E4E4E4"/>
<rect x="291" y="185" width="40" height="41" fill="#D2D2D2"/>
<circle cx="356.5" cy="205.5" r="20.5" fill="#E4E4E4"/>
<path d="M255.689 242.539V266H250.855L241.429 250.273V266H236.595V242.539H241.429L250.871 258.282V242.539H255.689ZM258.863 257.46V257.122C258.863 255.843 259.046 254.667 259.411 253.593C259.776 252.508 260.308 251.568 261.006 250.773C261.705 249.978 262.564 249.36 263.584 248.92C264.605 248.469 265.776 248.243 267.097 248.243C268.418 248.243 269.595 248.469 270.626 248.92C271.657 249.36 272.522 249.978 273.22 250.773C273.929 251.568 274.466 252.508 274.832 253.593C275.197 254.667 275.379 255.843 275.379 257.122V257.46C275.379 258.728 275.197 259.904 274.832 260.989C274.466 262.063 273.929 263.003 273.22 263.809C272.522 264.604 271.663 265.221 270.642 265.662C269.622 266.102 268.451 266.322 267.129 266.322C265.808 266.322 264.632 266.102 263.601 265.662C262.58 265.221 261.715 264.604 261.006 263.809C260.308 263.003 259.776 262.063 259.411 260.989C259.046 259.904 258.863 258.728 258.863 257.46ZM263.504 257.122V257.46C263.504 258.19 263.568 258.873 263.697 259.506C263.826 260.14 264.03 260.699 264.31 261.182C264.6 261.655 264.976 262.025 265.438 262.294C265.899 262.562 266.463 262.697 267.129 262.697C267.774 262.697 268.327 262.562 268.789 262.294C269.251 262.025 269.622 261.655 269.901 261.182C270.18 260.699 270.384 260.14 270.513 259.506C270.653 258.873 270.723 258.19 270.723 257.46V257.122C270.723 256.413 270.653 255.747 270.513 255.124C270.384 254.49 270.175 253.931 269.885 253.448C269.605 252.954 269.235 252.567 268.773 252.288C268.311 252.008 267.752 251.869 267.097 251.869C266.442 251.869 265.883 252.008 265.421 252.288C264.97 252.567 264.6 252.954 264.31 253.448C264.03 253.931 263.826 254.49 263.697 255.124C263.568 255.747 263.504 256.413 263.504 257.122ZM291.879 242.539V266H287.062V242.539H291.879ZM300.758 252.175V266H296.101V248.565H300.468L300.758 252.175ZM300.113 256.67H298.824C298.824 255.457 298.969 254.339 299.259 253.319C299.56 252.288 299.995 251.396 300.564 250.644C301.145 249.881 301.859 249.291 302.708 248.872C303.556 248.453 304.539 248.243 305.656 248.243C306.43 248.243 307.139 248.361 307.783 248.598C308.428 248.823 308.981 249.183 309.443 249.677C309.916 250.161 310.281 250.794 310.539 251.579C310.796 252.352 310.925 253.281 310.925 254.366V266H306.285V254.882C306.285 254.087 306.177 253.475 305.962 253.045C305.748 252.615 305.441 252.314 305.044 252.143C304.657 251.971 304.19 251.885 303.642 251.885C303.041 251.885 302.514 252.008 302.063 252.255C301.623 252.502 301.257 252.846 300.967 253.287C300.677 253.716 300.462 254.221 300.323 254.801C300.183 255.381 300.113 256.004 300.113 256.67ZM310.49 256.139L308.831 256.348C308.831 255.209 308.97 254.151 309.25 253.174C309.54 252.196 309.964 251.337 310.522 250.596C311.092 249.854 311.795 249.28 312.633 248.872C313.471 248.453 314.438 248.243 315.534 248.243C316.372 248.243 317.134 248.367 317.822 248.614C318.509 248.85 319.095 249.231 319.578 249.758C320.072 250.273 320.448 250.95 320.706 251.788C320.975 252.626 321.109 253.652 321.109 254.866V266H316.452V254.866C316.452 254.06 316.345 253.448 316.13 253.029C315.926 252.599 315.625 252.304 315.228 252.143C314.841 251.971 314.379 251.885 313.842 251.885C313.283 251.885 312.794 251.998 312.375 252.223C311.957 252.438 311.607 252.739 311.328 253.125C311.049 253.512 310.839 253.963 310.7 254.479C310.56 254.984 310.49 255.537 310.49 256.139ZM334.112 262.068V254.302C334.112 253.743 334.021 253.265 333.838 252.868C333.656 252.459 333.371 252.143 332.984 251.917C332.608 251.691 332.12 251.579 331.518 251.579C331.002 251.579 330.557 251.67 330.181 251.853C329.805 252.024 329.515 252.277 329.311 252.61C329.106 252.932 329.004 253.313 329.004 253.754H324.364C324.364 253.013 324.536 252.309 324.879 251.643C325.223 250.977 325.723 250.392 326.378 249.887C327.033 249.371 327.812 248.968 328.714 248.678C329.627 248.388 330.648 248.243 331.776 248.243C333.129 248.243 334.333 248.469 335.385 248.92C336.438 249.371 337.265 250.048 337.867 250.95C338.479 251.853 338.785 252.98 338.785 254.334V261.794C338.785 262.75 338.844 263.535 338.962 264.147C339.081 264.749 339.252 265.275 339.478 265.726V266H334.789C334.563 265.527 334.392 264.937 334.273 264.228C334.166 263.508 334.112 262.788 334.112 262.068ZM334.725 255.381L334.757 258.008H332.163C331.55 258.008 331.019 258.078 330.567 258.217C330.116 258.357 329.746 258.556 329.456 258.813C329.166 259.061 328.951 259.351 328.811 259.684C328.682 260.017 328.618 260.382 328.618 260.779C328.618 261.177 328.709 261.537 328.892 261.859C329.074 262.17 329.337 262.417 329.681 262.6C330.025 262.772 330.428 262.858 330.89 262.858C331.588 262.858 332.195 262.718 332.71 262.439C333.226 262.16 333.624 261.816 333.903 261.408C334.193 261 334.343 260.613 334.354 260.248L335.579 262.213C335.407 262.654 335.17 263.11 334.87 263.583C334.58 264.056 334.209 264.501 333.758 264.92C333.307 265.329 332.764 265.667 332.13 265.936C331.497 266.193 330.745 266.322 329.875 266.322C328.768 266.322 327.764 266.102 326.861 265.662C325.97 265.21 325.261 264.593 324.734 263.809C324.219 263.014 323.961 262.111 323.961 261.102C323.961 260.188 324.133 259.377 324.477 258.668C324.82 257.959 325.325 257.363 325.991 256.88C326.668 256.386 327.511 256.015 328.521 255.768C329.531 255.51 330.702 255.381 332.034 255.381H334.725ZM353.4 248.565H357.605V265.42C357.605 267.01 357.251 268.358 356.542 269.464C355.844 270.582 354.866 271.425 353.609 271.994C352.353 272.574 350.892 272.864 349.227 272.864C348.496 272.864 347.723 272.768 346.906 272.574C346.101 272.381 345.327 272.08 344.586 271.672C343.855 271.264 343.243 270.748 342.749 270.125L344.795 267.386C345.333 268.009 345.956 268.492 346.665 268.836C347.374 269.19 348.158 269.368 349.017 269.368C349.855 269.368 350.564 269.212 351.144 268.9C351.724 268.6 352.17 268.154 352.481 267.563C352.793 266.983 352.949 266.279 352.949 265.452V252.594L353.4 248.565ZM341.669 257.492V257.154C341.669 255.822 341.831 254.613 342.153 253.528C342.486 252.433 342.953 251.493 343.555 250.708C344.167 249.924 344.908 249.317 345.778 248.888C346.648 248.458 347.631 248.243 348.727 248.243C349.887 248.243 350.859 248.458 351.644 248.888C352.428 249.317 353.072 249.93 353.577 250.725C354.082 251.509 354.474 252.438 354.753 253.512C355.043 254.576 355.269 255.741 355.43 257.009V257.75C355.269 258.964 355.027 260.092 354.705 261.134C354.383 262.176 353.958 263.089 353.432 263.873C352.906 264.646 352.25 265.248 351.466 265.678C350.693 266.107 349.769 266.322 348.695 266.322C347.621 266.322 346.648 266.102 345.778 265.662C344.919 265.221 344.183 264.604 343.571 263.809C342.958 263.014 342.486 262.079 342.153 261.005C341.831 259.931 341.669 258.76 341.669 257.492ZM346.31 257.154V257.492C346.31 258.212 346.38 258.883 346.52 259.506C346.659 260.129 346.874 260.683 347.164 261.166C347.465 261.639 347.835 262.009 348.276 262.278C348.727 262.536 349.259 262.665 349.871 262.665C350.72 262.665 351.413 262.487 351.95 262.133C352.487 261.768 352.89 261.268 353.158 260.634C353.427 260 353.583 259.27 353.625 258.443V256.332C353.604 255.655 353.513 255.048 353.352 254.511C353.19 253.963 352.965 253.496 352.675 253.109C352.385 252.723 352.009 252.422 351.547 252.207C351.085 251.992 350.537 251.885 349.903 251.885C349.291 251.885 348.759 252.024 348.308 252.304C347.868 252.572 347.497 252.943 347.196 253.416C346.906 253.888 346.686 254.447 346.536 255.091C346.385 255.725 346.31 256.413 346.31 257.154ZM369.239 266.322C367.886 266.322 366.672 266.107 365.598 265.678C364.523 265.237 363.61 264.63 362.858 263.857C362.117 263.083 361.548 262.187 361.15 261.166C360.753 260.135 360.554 259.039 360.554 257.879V257.234C360.554 255.913 360.742 254.705 361.118 253.609C361.494 252.513 362.031 251.562 362.729 250.757C363.438 249.951 364.298 249.333 365.308 248.904C366.317 248.463 367.456 248.243 368.724 248.243C369.959 248.243 371.055 248.447 372.011 248.855C372.967 249.264 373.767 249.844 374.412 250.596C375.067 251.348 375.561 252.25 375.894 253.303C376.227 254.345 376.394 255.505 376.394 256.783V258.717H362.536V255.623H371.833V255.269C371.833 254.624 371.715 254.049 371.479 253.544C371.253 253.029 370.91 252.621 370.448 252.32C369.986 252.019 369.395 251.869 368.675 251.869C368.063 251.869 367.537 252.003 367.096 252.271C366.656 252.54 366.296 252.916 366.017 253.399C365.748 253.883 365.544 254.452 365.404 255.107C365.275 255.752 365.211 256.461 365.211 257.234V257.879C365.211 258.577 365.308 259.222 365.501 259.812C365.705 260.403 365.99 260.914 366.355 261.343C366.731 261.773 367.182 262.106 367.708 262.342C368.246 262.579 368.853 262.697 369.529 262.697C370.367 262.697 371.146 262.536 371.866 262.213C372.596 261.88 373.225 261.381 373.751 260.715L376.007 263.164C375.642 263.69 375.142 264.195 374.508 264.679C373.885 265.162 373.133 265.56 372.252 265.871C371.372 266.172 370.367 266.322 369.239 266.322Z" fill="#E4E4E4"/>
</svg>
