<svg width="1024" height="1024" viewBox="0 0 1024 1024" fill="none" xmlns="http://www.w3.org/2000/svg">
<rect width="1024" height="1024" rx="200" fill="#1C8B6A"/>
<path fill-rule="evenodd" clip-rule="evenodd" d="M513.631 490.431L513.702 296.556C509.077 177.926 726.151 96 726.151 96V296.556H726.077C729.928 395.319 580.121 468.641 529.834 490.431H588.492C596.2 490.431 602.44 496.671 602.44 504.379V552.095C602.44 559.803 596.2 566.043 588.492 566.043H573.222V614.127L640.319 720.718C645.531 729.087 645.238 739.805 639.512 747.806L517.651 919.219C515.229 922.669 512.145 925.238 508.695 926.927V738.19C515.302 734.446 519.78 727.325 519.78 719.176C519.78 706.99 509.943 697.153 497.757 697.153C485.571 697.153 475.734 706.99 475.734 719.176C475.734 727.325 480.212 734.372 486.819 738.19V927C483.369 925.238 480.285 922.669 477.863 919.292L356.002 747.88C350.276 739.805 349.983 729.16 355.195 720.791L422.145 614.127V566.043H406.875C399.167 566.043 392.928 559.803 392.928 552.095V504.379C392.928 496.671 399.167 490.431 406.875 490.431H474.56C436.354 473.296 342.558 424.551 345.073 359.909H345V222.705C345 222.705 493.508 278.791 490.352 359.909H490.425V490.431H513.631Z" fill="white"/>
</svg>
